<svg width="147" height="147" viewBox="0 0 147 147" fill="none" xmlns="http://www.w3.org/2000/svg">
<path d="M73.4997 121.347C99.9248 121.347 121.347 99.9251 121.347 73.5C121.347 47.0749 99.9248 25.6531 73.4997 25.6531C47.0746 25.6531 25.6528 47.0749 25.6528 73.5C25.6528 99.9251 47.0746 121.347 73.4997 121.347Z" fill="url(#paint0_linear)"/>
<path d="M73.4997 25.6531C71.5475 25.6531 69.6232 25.773 67.7321 26.0001C91.4371 28.8488 109.811 49.0272 109.811 73.5C109.811 97.9728 91.4371 118.151 67.7321 121C69.6232 121.227 71.5475 121.347 73.4997 121.347C99.9247 121.347 121.347 99.925 121.347 73.5C121.347 47.075 99.9247 25.6531 73.4997 25.6531Z" fill="url(#paint1_linear)"/>
<path d="M71.3763 62.818C71.3763 53.7871 63.4913 48.8672 55.6736 48.8672C47.9907 48.8672 40.4424 53.5847 40.4424 61.8069C40.4424 66.0529 42.4644 67.2658 45.1599 67.2658C48.5974 67.2658 50.6865 65.3787 50.6865 63.4245C50.6865 59.7178 53.0452 58.3697 55.741 58.3697C59.5152 58.3697 60.8632 60.9981 60.8632 63.1547C60.8632 71.7135 39.6339 77.7791 39.6339 88.3599V94.8973C39.6339 96.8518 42.3298 98.1322 44.2168 98.1322H68.2092C69.8939 98.1322 71.3766 95.9082 71.3766 93.4818C71.3766 91.0557 69.8939 88.9663 68.2092 88.9663H50.5519V88.3599C50.5516 82.2277 71.3763 77.4424 71.3763 62.818Z" fill="url(#paint2_linear)"/>
<path d="M104.131 78.0491H101.233V73.3316C101.233 71.1076 98.6049 70.1639 95.9765 70.1639C93.3481 70.1639 90.7197 71.1076 90.7197 73.3316V78.0491H84.9239L96.8527 54.1243C97.0548 53.6524 97.1896 53.248 97.1896 52.8439C97.1896 50.4176 93.7525 48.8675 91.9331 48.8675C90.2481 48.8675 88.5634 49.6091 87.5525 51.5633L71.9844 82.0928C71.5801 82.8341 71.4452 83.5755 71.4452 84.1147C71.4452 86.4734 72.9953 87.754 74.9498 87.754H90.7199V94.8979C90.7199 97.0544 93.3483 98.1327 95.9768 98.1327C98.6052 98.1327 101.233 97.0544 101.233 94.8979V87.754H104.131C105.748 87.754 107.366 85.3276 107.366 82.9016C107.366 80.4752 106.287 78.0491 104.131 78.0491Z" fill="url(#paint3_linear)"/>
<path d="M73.4997 8.07083C42.0969 8.07083 15.865 30.1965 9.5319 59.7077H4.56101C0.795523 59.7077 -1.34202 64.0188 0.937334 67.0162L14.9902 85.4951C16.8121 87.8909 20.4159 87.8909 22.2378 85.4951L36.2907 67.0162C38.5701 64.0188 36.4325 59.7077 32.667 59.7077H29.3803C35.247 40.9217 52.7812 27.2865 73.4997 27.2865C99.0223 27.2865 119.713 47.9774 119.713 73.5H138.929C138.929 37.3652 109.634 8.07083 73.4997 8.07083Z" fill="url(#paint4_linear)"/>
<path d="M73.4997 8.07083C71.5466 8.07083 69.614 8.15672 67.7045 8.32419C101.151 11.2322 127.394 39.2996 127.394 73.5H138.929C138.929 37.3652 109.634 8.07083 73.4997 8.07083Z" fill="url(#paint5_linear)"/>
<path d="M67.7281 27.6439C65.8399 27.409 63.9165 27.2865 61.9646 27.2865C42.4312 27.2865 25.7286 39.4062 18.9649 56.5357C18.3637 58.0581 19.4947 59.708 21.1316 59.708C24.8971 59.708 27.0349 64.0191 24.7553 67.0164L12.846 82.6765L14.9899 85.4954C16.8118 87.8912 20.4156 87.8912 22.2375 85.4954L36.2904 67.0164C38.5698 64.0191 36.4322 59.708 32.6667 59.708H29.38C34.6933 42.6941 49.5765 29.9054 67.7281 27.6439Z" fill="url(#paint6_linear)"/>
<path d="M142.44 87.292H137.468C131.135 116.804 104.903 138.929 73.4997 138.929C38.3669 138.929 9.70197 111.238 8.13974 76.489L14.9911 85.4963C16.8127 87.8915 20.4156 87.8915 22.2373 85.4963L27.5581 78.5037C30.0484 101.675 49.6685 119.713 73.4997 119.713C94.218 119.713 111.751 106.079 117.62 87.292H114.334C110.567 87.292 108.431 82.98 110.708 79.9824L119.441 68.4963L124.762 61.5037C126.584 59.1085 130.187 59.1085 132.008 61.5037L138.86 70.511L146.063 79.9824C148.343 82.98 146.204 87.292 142.44 87.292Z" fill="url(#paint7_linear)"/>
<path d="M27.5581 78.5037L22.2373 85.4963C20.4156 87.8915 16.8127 87.8915 14.9911 85.4963L8.13974 76.489C8.26829 79.3511 8.58449 82.164 9.06958 84.9189L14.9902 92.7041C16.3515 94.4944 18.7073 94.9455 20.5716 94.0606C28.136 109.265 43.8295 119.712 61.9646 119.712C63.9205 119.712 65.848 119.59 67.7399 119.355C46.572 116.723 29.8446 99.7783 27.5581 78.5037Z" fill="url(#paint8_linear)"/>
<path d="M146.063 79.9824L138.86 70.511L132.008 61.5037C130.187 59.1085 126.584 59.1085 124.762 61.5037L122.617 64.3223L127.325 70.511L134.528 79.9824C136.807 82.98 134.669 87.292 130.904 87.292H130.793C127.996 87.292 125.565 89.158 124.783 91.8426C117.373 117.265 94.953 136.289 67.7587 138.676C69.6509 138.84 71.5648 138.929 73.4997 138.929C104.903 138.929 131.135 116.804 137.467 87.292H142.44C146.204 87.292 148.343 82.98 146.063 79.9824Z" fill="url(#paint9_linear)"/>
<defs>
<linearGradient id="paint0_linear" x1="26.8058" y1="73.5" x2="117.031" y2="73.5" gradientUnits="userSpaceOnUse">
<stop stop-color="#F2FBFF"/>
<stop offset="0.593" stop-color="#FAF7F7"/>
<stop offset="1" stop-color="#F3EAE6"/>
</linearGradient>
<linearGradient id="paint1_linear" x1="94.5408" y1="73.5" x2="137.009" y2="73.5" gradientUnits="userSpaceOnUse">
<stop stop-color="#F3EAE6"/>
<stop offset="1" stop-color="#CDBFBA"/>
</linearGradient>
<linearGradient id="paint2_linear" x1="41.5057" y1="73.5" x2="105.55" y2="73.5" gradientUnits="userSpaceOnUse">
<stop stop-color="#CDBFBA"/>
<stop offset="1" stop-color="#766E6E"/>
</linearGradient>
<linearGradient id="paint3_linear" x1="41.5057" y1="73.4999" x2="105.55" y2="73.4999" gradientUnits="userSpaceOnUse">
<stop stop-color="#CDBFBA"/>
<stop offset="1" stop-color="#766E6E"/>
</linearGradient>
<linearGradient id="paint4_linear" x1="13.8352" y1="47.6814" x2="112.478" y2="47.6814" gradientUnits="userSpaceOnUse">
<stop stop-color="#01D0FB"/>
<stop offset="0.6075" stop-color="#26A6FE"/>
<stop offset="1" stop-color="#0182FC"/>
</linearGradient>
<linearGradient id="paint5_linear" x1="46.9822" y1="40.7854" x2="122.39" y2="40.7854" gradientUnits="userSpaceOnUse">
<stop stop-color="#01BFFA"/>
<stop offset="1" stop-color="#5B5CFF"/>
</linearGradient>
<linearGradient id="paint6_linear" x1="18.3118" y1="57.2894" x2="57.2787" y2="57.2894" gradientUnits="userSpaceOnUse">
<stop stop-color="#01BFFA"/>
<stop offset="1" stop-color="#5B5CFF"/>
</linearGradient>
<linearGradient id="paint7_linear" x1="3.62484" y1="99.3183" x2="128.855" y2="99.3183" gradientUnits="userSpaceOnUse">
<stop stop-color="#B0E7C9"/>
<stop offset="0.593" stop-color="#46CC8D"/>
<stop offset="1" stop-color="#0AB69F"/>
</linearGradient>
<linearGradient id="paint8_linear" x1="3.65107" y1="98.1007" x2="42.7022" y2="98.1007" gradientUnits="userSpaceOnUse">
<stop stop-color="#46CC8D"/>
<stop offset="0.5484" stop-color="#0AB69F"/>
<stop offset="1" stop-color="#01998D"/>
</linearGradient>
<linearGradient id="paint9_linear" x1="84.5486" y1="99.3183" x2="136.388" y2="99.3183" gradientUnits="userSpaceOnUse">
<stop stop-color="#46CC8D"/>
<stop offset="0.5484" stop-color="#0AB69F"/>
<stop offset="1" stop-color="#01998D"/>
</linearGradient>
</defs>
</svg>
