<svg width="136" height="136" viewBox="0 0 136 136" fill="none" xmlns="http://www.w3.org/2000/svg">
<path d="M95.8906 31.875H71.9844L64.0156 39.8438V71.7188H79.9531L87.9219 63.75H103.859V39.8438L95.8906 31.875Z" fill="#FF9100"/>
<path d="M64.0156 23.9062H103.859V39.8438H64.0156V23.9062Z" fill="#FABE2C"/>
<path d="M44.0938 67.7344H32.1406V136H44.0938H56.0469V67.7344H44.0938Z" fill="#575F64"/>
<path d="M44.0938 67.7344H56.0469V136H44.0938V67.7344Z" fill="#474F54"/>
<path d="M56.0469 63.75V51.7969C56.0469 45.2057 50.685 39.8438 44.0938 39.8438C37.5025 39.8438 32.1406 45.2057 32.1406 51.7969V67.7344C32.1406 74.336 37.4922 79.6875 44.0938 79.6875H75.9688C82.5703 79.6875 87.9219 74.336 87.9219 67.7344V63.75H56.0469Z" fill="#FF6A4D"/>
<path d="M87.9219 67.7344V63.75H56.0469V51.7969C56.0469 45.2057 50.685 39.8438 44.0938 39.8438V79.6875H75.9688C82.5703 79.6875 87.9219 74.336 87.9219 67.7344Z" fill="#E64D2E"/>
<path d="M48.0781 19.9219H44.0938H40.1094L32.1406 23.9062V27.8906C32.1406 34.4818 37.5025 39.8438 44.0938 39.8438C50.685 39.8438 56.0469 34.4818 56.0469 27.8906V23.9062L48.0781 19.9219Z" fill="#FFE1BA"/>
<path d="M56.0469 27.8906V23.9062L48.0781 19.9219H44.0938V39.8438C50.685 39.8438 56.0469 34.4818 56.0469 27.8906Z" fill="#FFBFAB"/>
<path d="M44.0938 0C37.5025 0 32.1406 5.36191 32.1406 11.9531V15.9375L40.1094 19.9219H44.0938H48.0781L56.0469 15.9375V11.9531C56.0469 5.36191 50.685 0 44.0938 0Z" fill="#FF6A4D"/>
<path d="M56.0469 15.9375V11.9531C56.0469 5.36191 50.685 0 44.0938 0V19.9219H48.0781L56.0469 15.9375Z" fill="#E64D2E"/>
<path d="M44.0938 15.9375H32.1406V23.9062H44.0938H64.0156V15.9375H44.0938Z" fill="#474F54"/>
<path d="M44.0938 15.9375H64.0156V23.9062H44.0938V15.9375Z" fill="#32393F"/>
</svg>
