<svg width="135" height="136" viewBox="0 0 135 136" fill="none" xmlns="http://www.w3.org/2000/svg">
<g clip-path="url(#clip0)">
<path d="M83.3192 8.366C80.7909 8.0863 78.2388 7.92587 75.6409 8.02494C55.3869 8.76045 37.6434 20.8845 27.7906 31.9893L27.7867 86.8709L31.2241 87.2638C41.5868 88.4543 48.7591 91.7735 52.548 97.1351C56.7348 103.061 55.6187 110.01 55.1784 112.002C53.7116 118.62 57.5846 125.357 64.2201 126.644C67.9705 127.368 71.7402 127.726 75.4827 127.726C78.1183 127.726 80.7281 127.485 83.3194 127.137C112.617 123.198 135.24 98.0892 134.998 67.5212C134.734 35.0169 108.668 11.168 83.3192 8.366Z" fill="#FABE2C"/>
<path d="M134.998 67.5215C134.734 35.0168 108.668 11.168 83.3192 8.366V127.137C112.617 123.198 135.239 98.0894 134.998 67.5215Z" fill="#FF9100"/>
<path d="M89.3907 53.9187C84.7675 49.2536 84.7675 41.6701 89.3867 37.0088C94.0215 32.3474 101.545 32.3474 106.172 37.0088C110.799 41.6701 110.799 49.2536 106.172 53.9148V53.9187C101.546 58.5719 94.018 58.5724 89.3907 53.9187Z" fill="#00C8C8"/>
<path d="M55.7614 40.3003C54.0778 34.0017 57.7497 27.3903 64.1502 25.6665C70.4535 23.9662 76.9848 27.7481 78.6802 34.1175C80.379 40.4892 76.6307 47.0455 70.2913 48.7551C63.9377 50.4705 57.4525 46.6729 55.7614 40.3003Z" fill="#474F54"/>
<path d="M41.7758 71.2957C35.4533 69.5875 31.6913 63.0197 33.3867 56.6581C35.0715 50.3095 41.5496 46.4851 47.913 48.2071C54.2508 49.914 58.0083 56.4594 56.3058 62.8447C54.6041 69.2499 48.0836 72.9981 41.7758 71.2957Z" fill="#FF435B"/>
<path d="M102.901 87.7932C96.5801 86.0887 92.8065 79.5528 94.5124 73.1556C96.2131 66.7552 102.735 62.9998 109.042 64.7046C115.365 66.4128 119.127 72.9805 117.431 79.3422C115.737 85.7274 109.224 89.5064 102.901 87.7932Z" fill="#99341F"/>
<path d="M23.994 0.00106812C14.1876 0.00106812 12.1289 37.1023 12.1289 68.0001C12.1289 69.3888 12.1463 70.663 12.1569 71.9845L20.5331 75.9688H23.994H29.5967L35.8329 71.9845C35.8427 70.6625 35.859 69.4111 35.859 68.0001C35.859 37.102 33.8003 0.00106812 23.994 0.00106812Z" fill="#B35324"/>
<path d="M35.8328 71.9845C35.8425 70.6625 35.8589 69.4111 35.8589 68.0001C35.8589 37.1023 33.8002 0.00106049 23.9938 0.00106049V75.9688H29.5965L35.8328 71.9845Z" fill="#99341F"/>
<path d="M23.9938 71.9845H12.1567C12.298 89.6042 13.3005 101.179 13.3569 102.244H23.9938H34.6307C34.7346 100.299 35.702 90.3673 35.8328 71.9845H23.9938Z" fill="#FFF7E6"/>
<path d="M35.8328 71.9845H23.9938V102.244H34.6307C34.7343 100.299 35.702 90.3671 35.8328 71.9845Z" fill="#FFCCB3"/>
<path d="M23.9938 95.8904C15.2688 95.8904 8.17371 103.038 8.17371 111.828V119.796C8.17371 124.189 4.36054 128.031 -7.62939e-06 128.031V135.999H16.0838C18.871 135.999 21.5074 135.424 23.9938 134.531C33.1813 131.231 39.8139 122.202 39.8139 111.828C39.8139 103.038 32.7189 95.8904 23.9938 95.8904Z" fill="#474F54"/>
<path d="M39.8139 111.828C39.8139 103.038 32.7189 95.8904 23.9938 95.8904V134.531C33.1813 131.231 39.8139 122.202 39.8139 111.828Z" fill="#32393F"/>
<path d="M83.3192 111.828C89.8721 111.828 95.1842 106.476 95.1842 99.8747C95.1842 93.2733 89.8721 87.9217 83.3192 87.9217C76.7663 87.9217 71.4541 93.2733 71.4541 99.8747C71.4541 106.476 76.7663 111.828 83.3192 111.828Z" fill="#FFF7E6"/>
<path d="M95.1842 99.8747C95.1842 93.2732 89.8721 87.9217 83.3192 87.9217V111.828C89.8721 111.828 95.1842 106.476 95.1842 99.8747Z" fill="#FFE6CC"/>
</g>
<defs>
<clipPath id="clip0">
<rect width="135" height="136" fill="white"/>
</clipPath>
</defs>
</svg>
