<svg width="147" height="147" viewBox="0 0 147 147" fill="none" xmlns="http://www.w3.org/2000/svg">
<path d="M102.495 55.8571V65.9261H45.079V55.8571C45.079 40.3159 57.4908 27.6199 72.9229 27.1634C88.3019 26.4649 102.495 39.1583 102.495 55.8571Z" fill="#FF6A4D"/>
<path d="M102.495 55.8571V65.9261H73.4914V27.1462C88.8632 26.8505 102.495 39.5005 102.495 55.8571Z" fill="#FF4D4D"/>
<path d="M91.3496 17.8812C91.3496 27.8602 83.1104 36.0572 72.9229 35.7537C63.3335 35.4551 55.6246 27.551 55.6246 17.8812C55.6246 8.21132 63.3335 0.307203 72.9229 0.00860931C83.0719 -0.294578 91.3496 7.86794 91.3496 17.8812Z" fill="#F6E1BE"/>
<path d="M91.3496 17.8812C91.3496 27.729 83.3507 35.7566 73.4971 35.7623V0C83.3507 0.00861328 91.3496 8.03332 91.3496 17.8812Z" fill="#F1CEA0"/>
<path d="M57.419 136.928V147H0V136.928C0 121.117 12.851 108.252 28.6535 108.223C44.6673 108.223 57.419 121.206 57.419 136.928Z" fill="#FED843"/>
<path d="M57.419 136.928V147H28.6535C28.6535 106.373 28.6234 108.223 28.7081 108.223C44.5393 108.223 57.419 121.1 57.419 136.928Z" fill="#FFBE00"/>
<path d="M46.2706 98.9552C46.2706 108.832 38.2384 116.836 28.4095 116.836C18.5588 116.836 10.5455 108.814 10.5455 98.9552C10.5455 89.0958 18.5588 81.074 28.4095 81.074C38.2476 81.074 46.2706 89.0875 46.2706 98.9552Z" fill="#F6E1BE"/>
<path d="M46.2706 98.9551C46.2706 108.731 38.3894 116.704 28.6535 116.833V81.0768C38.3894 81.206 46.2706 89.1791 46.2706 98.9551Z" fill="#F1CEA0"/>
<path d="M147 136.928V147H89.5839V136.928C89.5839 121.103 102.458 108.226 118.286 108.223C134.106 108.223 147 121.081 147 136.928Z" fill="#FED843"/>
<path d="M147 136.928V147H118.286C118.286 107.353 118.263 108.223 118.292 108.223C134.123 108.223 147 121.1 147 136.928Z" fill="#FFBE00"/>
<path d="M117.99 116.836C127.856 116.836 135.854 108.831 135.854 98.9552C135.854 89.0796 127.856 81.074 117.99 81.074C108.124 81.074 100.127 89.0796 100.127 98.9552C100.127 108.831 108.124 116.836 117.99 116.836Z" fill="#F6E1BE"/>
<path d="M135.854 98.9551C135.854 108.714 128.002 116.676 118.286 116.833V81.0768C128.002 81.2348 135.854 89.1963 135.854 98.9551Z" fill="#F1CEA0"/>
<path d="M56.6708 108.701L62.7613 102.611C70.2459 110.096 76.7475 110.097 84.2333 102.611L90.3238 108.701C79.6895 119.336 67.7794 119.81 56.6708 108.701Z" fill="#4DC3FF"/>
<path d="M21.5378 62.8857H12.9245C12.9245 47.8785 20.9794 39.0895 36.721 39.0895V47.7028C26.1359 47.7025 21.5378 52.2986 21.5378 62.8857Z" fill="#4DC3FF"/>
<path d="M134.323 62.8712H125.71C125.71 52.2861 121.113 47.6883 110.527 47.6883V39.075C125.565 39.075 134.323 47.1612 134.323 62.8712Z" fill="#4DC3FF"/>
</svg>
