<svg width="136" height="136" viewBox="0 0 136 136" fill="none" xmlns="http://www.w3.org/2000/svg">
<path d="M110.376 68.9561L97.467 64.2543C97.0686 64.0952 96.5905 64.0155 96.1126 64.0155H13.3968C11.1653 64.0155 9.41244 65.7683 9.41244 67.9999V124.047C9.41244 130.661 14.7512 136 21.3656 136H101.053C107.668 136 113.006 130.661 113.006 124.047V72.7012C113.006 71.028 111.97 69.5139 110.376 68.9561Z" fill="#FC1A40"/>
<path d="M113.006 72.7012V124.047C113.006 130.661 107.668 136 101.053 136H61.2094V64.0155H96.1126C96.5907 64.0155 97.0689 64.0952 97.467 64.2543L110.376 68.9561C111.97 69.5139 113.006 71.028 113.006 72.7012Z" fill="#C60034"/>
<path d="M111.572 25.975C110.218 20.4765 106.153 16.1737 100.655 14.4203C95.236 12.7466 89.4186 13.9421 85.1954 17.7669L75.9514 25.8953L74.1188 13.7034C73.2423 8.12522 69.6563 3.42338 64.3175 1.19239C63.2816 0.793686 62.2456 0.474935 61.2097 0.31556C56.8269 -0.561004 52.2847 0.395248 48.6188 3.10489C43.7578 6.61115 41.2878 12.508 42.0844 18.4047C42.9612 24.3015 46.9456 29.3219 52.6031 31.3141L61.2097 34.4219L71.8081 38.3266C71.8878 38.3266 71.8878 38.3266 71.8878 38.3266L90.2957 45.0998C92.1282 45.7375 94.0407 46.0565 95.8735 46.0565C99.7788 46.0565 103.604 44.6216 106.632 41.9125C111.094 37.9281 113.006 31.7919 111.572 25.975Z" fill="#FE9923"/>
<path d="M106.631 41.9125C103.603 44.6216 99.7782 46.0565 95.8733 46.0565C94.0407 46.0565 92.1282 45.7375 90.2954 45.0998L71.8876 38.3266C71.8876 38.3266 71.8876 38.3266 71.8079 38.3266L61.2094 34.4219V0.315292C62.2454 0.474933 63.2813 0.793418 64.3172 1.19212C69.656 3.42311 73.2423 8.12495 74.1186 13.7031L75.9511 25.895L85.1951 17.7666C89.4183 13.9419 95.2358 12.7463 100.655 14.42C106.153 16.1734 110.217 20.4763 111.572 25.9747C113.006 31.7919 111.094 37.9281 106.631 41.9125Z" fill="#FE8821"/>
<path d="M126.633 62.1824L121.214 77.1637C120.576 78.7574 119.062 79.7137 117.469 79.7137C116.991 79.7137 116.512 79.634 116.114 79.4749L74.9154 64.4936L71.1704 52.142L61.2094 54.373L52.444 56.3652L11.2453 41.3839C9.17338 40.5873 8.1377 38.2761 8.85463 36.2839L14.3531 21.3032C15.389 18.275 17.6205 15.8839 20.4893 14.5295C23.358 13.175 26.625 13.0154 29.6531 14.131L61.2097 25.606L63.3615 26.4027C63.3615 26.4027 71.9675 42.0217 72.2068 42.0217C72.3665 42.0217 75.7928 40.1092 79.1397 38.2761C82.4858 36.4433 85.8329 34.5311 85.8329 34.5311L119.461 46.8027C122.489 47.9183 124.88 50.1498 126.234 53.0186C127.589 55.8871 127.748 59.1545 126.633 62.1824Z" fill="#FF3E75"/>
<path d="M126.633 62.1824L121.214 77.1637C120.576 78.7574 119.062 79.7137 117.469 79.7137C116.991 79.7137 116.512 79.634 116.114 79.4749L74.9154 64.4936L71.1704 52.142L61.2094 54.373V25.606L63.3613 26.4026C63.3613 26.4026 71.9673 42.0217 72.2066 42.0217C72.3662 42.0217 75.7925 40.1092 79.1394 38.2761C82.4858 36.4433 85.8329 34.531 85.8329 34.531L119.461 46.8027C122.489 47.9183 124.88 50.1498 126.234 53.0186C127.589 55.8871 127.748 59.1545 126.633 62.1824Z" fill="#FC1A40"/>
<path d="M49.2563 64.0155V136H73.1626V64.0155H49.2563Z" fill="#FCBF29"/>
<path d="M63.361 26.4026L61.2092 32.2995L52.4438 56.3655L61.2092 59.5532L71.1701 63.1392L74.9152 64.4936L85.8329 34.5311L63.361 26.4026Z" fill="#FCBF29"/>
<path d="M73.1636 64.0155H61.2105V136H73.1636V64.0155Z" fill="#FE9923"/>
<path d="M85.8329 34.5311L74.9154 64.4936L71.1704 63.1389L61.2094 59.553V32.2995L63.361 26.4026L85.8329 34.5311Z" fill="#FE9923"/>
</svg>
