<svg width="136" height="136" viewBox="0 0 136 136" fill="none" xmlns="http://www.w3.org/2000/svg">
<path d="M67.1529 113.727L60.9028 119.186C60.09 119.898 59.0195 120.248 57.941 120.155L50.9445 119.555L50.4371 126.788C50.3654 127.84 49.8767 128.817 49.0851 129.511L43.3449 134.526C41.6901 135.968 39.172 135.806 37.7217 134.146L23.741 118.139L53.55 92.0999L67.5328 108.107C68.9804 109.764 68.8104 112.28 67.1529 113.727Z" fill="#EE9900"/>
<path d="M86.4349 65.1358L19.8124 123.335C14.8288 127.686 7.28422 127.16 2.94497 122.195C-1.39003 117.231 -0.88003 109.666 4.0845 105.328L70.7096 47.1314L86.4349 65.1358Z" fill="#FDE47A"/>
<path d="M86.4349 65.1358C84.5577 66.7757 59.4997 88.6656 61.426 86.981L19.8124 123.335C14.832 127.683 7.29325 127.16 2.95294 122.203C3.4996 121.722 78.1819 55.8854 78.2799 55.7988L86.4349 65.1358Z" fill="#FCC136"/>
<path d="M79.4335 71.2552L63.7048 53.2485C62.2571 51.5913 59.7401 51.421 58.0829 52.8689C56.4256 54.3166 56.2554 56.8337 57.7033 58.4909L73.432 76.4976C74.8828 78.1583 77.4004 78.3216 79.0539 76.8772C80.7112 75.4295 80.8812 72.9125 79.4335 71.2552Z" fill="#FCC136"/>
<path d="M79.0529 76.8766C77.4007 78.3216 74.8826 78.1596 73.4323 76.4968L65.328 67.2185L71.3046 61.9485C73.0907 63.9938 66.9024 56.9075 79.4327 71.2563C80.8804 72.9135 80.7104 75.429 79.0529 76.8766Z" fill="#EE9900"/>
<path d="M51.7004 63.7343C50.2528 62.0774 47.7357 61.9068 46.0785 63.3547C44.4213 64.8024 44.2513 67.3195 45.6989 68.9767L61.4276 86.9834C62.8785 88.6441 65.3961 88.8075 67.0496 87.363C68.7068 85.9153 68.8771 83.3983 67.4292 81.741L51.7004 63.7343Z" fill="#FCC136"/>
<path d="M67.049 87.3635C65.3968 88.8085 62.8787 88.6438 61.4284 86.9837C49.2346 73.0253 54.962 79.5815 53.3693 77.7585L59.3486 72.4885L67.4289 81.7402C68.8768 83.3977 68.7068 85.9159 67.049 87.3635Z" fill="#EE9900"/>
<path d="M131.733 34.2146L107.44 6.40262C101.163 -0.782798 90.2655 -1.52123 83.0777 4.75787L67.07 18.7404C59.8833 25.0179 59.1464 35.9149 65.425 43.1024L89.7185 70.9144C95.9899 78.0938 106.894 78.8375 114.081 72.5592L130.088 58.5767C137.275 52.2992 138.012 41.4024 131.733 34.2146ZM112.979 47.0674L104.976 54.0581C103.871 55.0232 102.193 54.91 101.228 53.805L83.9261 33.9973C82.961 32.8926 83.0742 31.2144 84.1792 30.2494L92.1825 23.2584C93.2875 22.2934 94.9654 22.4065 95.9304 23.5115L113.232 43.3192C114.197 44.4245 114.084 46.1024 112.979 47.0674Z" fill="#FCC136"/>
<path d="M131.732 34.2141L119.131 19.7851L104.184 32.9603L113.231 43.32C114.198 44.425 114.084 46.1037 112.979 47.068L104.976 54.0592C103.871 55.0234 102.192 54.9092 101.228 53.8042L92.2282 43.5003C91.7397 43.9309 95.3498 40.7482 77.2838 56.6756C77.7253 57.1811 75.8843 55.0731 89.718 70.9134C95.9894 78.0932 106.894 78.8372 114.081 72.5603L130.088 58.5775C137.276 52.2978 138.012 41.4019 131.732 34.2141Z" fill="#EE9900"/>
</svg>
