<svg width="131" height="129" viewBox="0 0 131 129" fill="none" xmlns="http://www.w3.org/2000/svg">
<g clip-path="url(#clip0)">
<path d="M70.3333 11.3811L17.4939 36.8899C16.8313 37.2098 16.4105 37.8804 16.4105 38.6161V101.384C16.4105 102.119 16.8316 102.79 17.4939 103.11L70.3333 128.619C71.3863 129.127 72.6138 129.127 73.6668 128.619L126.506 103.11C127.169 102.79 127.59 102.119 127.59 101.384V38.6161C127.59 37.8804 127.168 37.2098 126.506 36.8899L73.6668 11.3811C72.6138 10.873 71.3863 10.873 70.3333 11.3811Z" fill="#FFE17D"/>
<path d="M16.7292 37.5669C16.5278 37.8736 16.4105 38.2348 16.4105 38.6162V101.384C16.4105 102.12 16.8316 102.79 17.4939 103.11L70.3333 128.619C70.8597 128.873 71.4298 129 72 129V64.2494L16.7292 37.5669Z" fill="#FFC350"/>
<path d="M127.271 37.5669C127.472 37.8736 127.59 38.2348 127.59 38.6162V101.384C127.59 102.12 127.168 102.79 126.506 103.11L73.6667 128.619C73.1404 128.873 72.5702 129 72 129V64.2494L127.271 37.5669Z" fill="#FFD164"/>
<path d="M32.2227 98.0381C31.9438 98.0381 31.6592 97.9763 31.3916 97.8473L23.2337 93.9088C22.2791 93.4483 21.8804 92.3026 22.3409 91.3499C22.7995 90.3971 23.9489 90.0003 24.8998 90.457L33.0577 94.3958C34.0123 94.8562 34.411 96.0019 33.9505 96.9546C33.6212 97.6394 32.936 98.0381 32.2227 98.0381Z" fill="#FFE17D"/>
<path d="M39.7311 93.1505C39.4523 93.1505 39.1677 93.0887 38.9001 92.9597L23.2448 85.4026C22.292 84.9421 21.8915 83.7965 22.352 82.8437C22.8106 81.8928 23.9618 81.4941 24.9109 81.9509L40.5659 89.5079C41.5187 89.9684 41.9192 91.1141 41.4587 92.0668C41.1296 92.7516 40.4445 93.1505 39.7311 93.1505Z" fill="#FFF6D8"/>
<path d="M108.541 46.5782L53.0756 19.7832L38.4546 26.8701L94.0441 53.7066L108.541 46.5782Z" fill="#FF8087"/>
<path d="M94.0441 53.7068V74.4967C94.0441 75.2033 94.7828 75.667 95.4193 75.3598L107.457 69.5485C108.12 69.2286 108.541 68.558 108.541 67.8223V46.5786L94.0441 53.7068Z" fill="#E6646E"/>
</g>
<path d="M7.77422 0.634766V2.95898H7.50078C6.22474 2.97852 5.19609 3.31055 4.41484 3.95508C3.6401 4.59961 3.17461 5.49479 3.01836 6.64062C3.77357 5.8724 4.72734 5.48828 5.87969 5.48828C7.11667 5.48828 8.09974 5.93099 8.82891 6.81641C9.55807 7.70182 9.92266 8.86719 9.92266 10.3125C9.92266 11.237 9.72083 12.0736 9.31719 12.8223C8.92005 13.571 8.35365 14.1536 7.61797 14.5703C6.8888 14.987 6.06198 15.1953 5.1375 15.1953C3.6401 15.1953 2.42917 14.6745 1.50469 13.6328C0.58672 12.5911 0.127735 11.2012 0.127735 9.46289V8.44727C0.127735 6.9043 0.417449 5.54362 0.996876 4.36523C1.58281 3.18034 2.4194 2.26562 3.50664 1.62109C4.60039 0.970052 5.86667 0.641276 7.30547 0.634766H7.77422ZM5.02031 7.75391C4.56458 7.75391 4.15117 7.87435 3.78008 8.11523C3.40899 8.34961 3.13555 8.66211 2.95977 9.05273V9.91211C2.95977 10.8561 3.14531 11.5951 3.51641 12.1289C3.8875 12.6562 4.40833 12.9199 5.07891 12.9199C5.68438 12.9199 6.17266 12.6823 6.54375 12.207C6.92135 11.7253 7.11016 11.1035 7.11016 10.3418C7.11016 9.56706 6.92135 8.94206 6.54375 8.4668C6.16615 7.99154 5.65833 7.75391 5.02031 7.75391ZM12.0563 13.6133C12.0563 13.1641 12.206 12.7995 12.5055 12.5195C12.8115 12.2396 13.1923 12.0996 13.648 12.0996C14.1103 12.0996 14.4911 12.2396 14.7906 12.5195C15.0966 12.7995 15.2496 13.1641 15.2496 13.6133C15.2496 14.056 15.0999 14.4173 14.8004 14.6973C14.5009 14.9707 14.1168 15.1074 13.648 15.1074C13.1858 15.1074 12.8049 14.9707 12.5055 14.6973C12.206 14.4173 12.0563 14.056 12.0563 13.6133ZM12.0563 5.61523C12.0563 5.16602 12.206 4.80143 12.5055 4.52148C12.8115 4.24154 13.1923 4.10156 13.648 4.10156C14.1103 4.10156 14.4911 4.24154 14.7906 4.52148C15.0966 4.80143 15.2496 5.16602 15.2496 5.61523C15.2496 6.05794 15.0999 6.41927 14.8004 6.69922C14.5009 6.97266 14.1168 7.10938 13.648 7.10938C13.1858 7.10938 12.8049 6.97266 12.5055 6.69922C12.206 6.41927 12.0563 6.05794 12.0563 5.61523ZM27.2172 9.12109C27.2172 11.0872 26.8103 12.5911 25.9965 13.6328C25.1827 14.6745 23.9913 15.1953 22.4223 15.1953C20.8728 15.1953 19.6879 14.6842 18.8676 13.6621C18.0473 12.64 17.6273 11.1751 17.6078 9.26758V6.65039C17.6078 4.66471 18.018 3.15755 18.8383 2.12891C19.6651 1.10026 20.8533 0.585938 22.4027 0.585938C23.9522 0.585938 25.1371 1.09701 25.9574 2.11914C26.7777 3.13477 27.1977 4.59635 27.2172 6.50391V9.12109ZM24.3949 6.25C24.3949 5.07161 24.2322 4.21549 23.9066 3.68164C23.5876 3.14128 23.0863 2.87109 22.4027 2.87109C21.7387 2.87109 21.2471 3.12826 20.9281 3.64258C20.6156 4.15039 20.4496 4.94792 20.4301 6.03516V9.49219C20.4301 10.651 20.5863 11.5137 20.8988 12.0801C21.2178 12.64 21.7257 12.9199 22.4223 12.9199C23.1124 12.9199 23.6104 12.6497 23.9164 12.1094C24.2224 11.569 24.3819 10.7422 24.3949 9.62891V6.25ZM38.9016 9.12109C38.9016 11.0872 38.4947 12.5911 37.6809 13.6328C36.8671 14.6745 35.6757 15.1953 34.1066 15.1953C32.5572 15.1953 31.3723 14.6842 30.552 13.6621C29.7316 12.64 29.3117 11.1751 29.2922 9.26758V6.65039C29.2922 4.66471 29.7023 3.15755 30.5227 2.12891C31.3495 1.10026 32.5376 0.585938 34.0871 0.585938C35.6366 0.585938 36.8215 1.09701 37.6418 2.11914C38.4621 3.13477 38.882 4.59635 38.9016 6.50391V9.12109ZM36.0793 6.25C36.0793 5.07161 35.9165 4.21549 35.591 3.68164C35.272 3.14128 34.7707 2.87109 34.0871 2.87109C33.423 2.87109 32.9315 3.12826 32.6125 3.64258C32.3 4.15039 32.134 4.94792 32.1145 6.03516V9.49219C32.1145 10.651 32.2707 11.5137 32.5832 12.0801C32.9022 12.64 33.41 12.9199 34.1066 12.9199C34.7967 12.9199 35.2948 12.6497 35.6008 12.1094C35.9068 11.569 36.0663 10.7422 36.0793 9.62891V6.25Z" fill="black"/>
<defs>
<clipPath id="clip0">
<rect width="118" height="118" fill="white" transform="translate(13 11)"/>
</clipPath>
</defs>
</svg>
