<svg width="80" height="80" viewBox="0 0 80 80" fill="none" xmlns="http://www.w3.org/2000/svg">
<path d="M65.9375 68.125H21.4062C17.5291 68.125 14.375 64.9709 14.375 61.0938C14.375 57.2166 17.5291 54.0625 21.4062 54.0625H28.4375L24.2123 58.75H21.4062C20.1131 58.75 19.0625 59.8006 19.0625 61.0938C19.0625 62.3869 20.1131 63.4375 21.4062 63.4375H65.9375V68.125Z" fill="#66CCFF"/>
<path d="M44.8438 63.4375H65.9375V68.125H44.8438V63.4375Z" fill="#59ABFF"/>
<path d="M16.9342 25.9384L14.8397 16.5625H0V11.875H18.5978L22.6583 30.0573L16.9342 25.9384Z" fill="#66CCFF"/>
<path d="M54.9077 26.7409L54.2074 25.9375H16.9384L24.2124 58.75H65.4088L73.6691 26.7844C72.0647 27.1853 62.5725 35.5467 54.9077 26.7409ZM66.6997 35.0172L65.4122 40H54.4209L55.0169 32.8497C58.4542 34.9445 62.6788 35.7777 66.6997 35.0172ZM39.968 40L39.1866 30.625H50.5008L49.7194 40H39.968ZM49.3289 44.6875L48.5475 54.0625H41.1397L40.3583 44.6875H49.3289ZM34.4852 30.625L35.2666 40H24.8578L22.7795 30.625H34.4852ZM25.8969 44.6875H35.657L36.4384 54.0625H27.9753L25.8969 44.6875ZM53.2492 54.0625L54.0306 44.6875H64.2013L61.7788 54.0625H53.2492Z" fill="#66CCFF"/>
<path d="M54.9077 26.7409L54.2073 25.9375H44.8438V30.625H50.5008L49.7194 40H44.8438V44.6875H49.3289L48.5475 54.0625H44.8438V58.75H65.4087L73.6691 26.7844C72.0647 27.1852 62.5727 35.5466 54.9077 26.7409ZM61.7787 54.0625H53.2492L54.0306 44.6875H64.2012L61.7787 54.0625ZM66.6997 35.0172L65.4122 40H54.4209L55.0169 32.8497C58.4542 34.9445 62.6787 35.7777 66.6997 35.0172Z" fill="#59ABFF"/>
<path d="M30.7812 77.5C26.9041 77.5 23.75 74.3459 23.75 70.4688C23.75 66.5916 26.9041 63.4375 30.7812 63.4375C34.6584 63.4375 37.8125 66.5916 37.8125 70.4688C37.8125 74.3459 34.6584 77.5 30.7812 77.5Z" fill="#665151"/>
<path d="M54.2188 77.5C50.3416 77.5 47.1875 74.3459 47.1875 70.4688C47.1875 66.5916 50.3416 63.4375 54.2188 63.4375C58.0959 63.4375 61.25 66.5916 61.25 70.4688C61.25 74.3459 58.0959 77.5 54.2188 77.5Z" fill="#4D3535"/>
<path d="M63.5938 35.3125C54.2969 35.3125 47.1875 27.7169 47.1875 18.9062C47.1875 9.86078 54.5483 2.5 63.5938 2.5C72.6392 2.5 80 9.86078 80 18.9062C80 28.1717 72.4738 35.3125 63.5938 35.3125Z" fill="#A0E65C"/>
<path d="M30.7812 72.8125C32.0757 72.8125 33.125 71.7632 33.125 70.4688C33.125 69.1743 32.0757 68.125 30.7812 68.125C29.4868 68.125 28.4375 69.1743 28.4375 70.4688C28.4375 71.7632 29.4868 72.8125 30.7812 72.8125Z" fill="#FFF7E6"/>
<path d="M54.2188 72.8125C55.5132 72.8125 56.5625 71.7632 56.5625 70.4688C56.5625 69.1743 55.5132 68.125 54.2188 68.125C52.9243 68.125 51.875 69.1743 51.875 70.4688C51.875 71.7632 52.9243 72.8125 54.2188 72.8125Z" fill="#FFEACC"/>
<path d="M80 18.9062C80 9.86078 72.6392 2.5 63.5938 2.5V35.3125C72.4738 35.3125 80 28.1717 80 18.9062Z" fill="#79CC52"/>
<path d="M70.625 16.5625H65.9375V11.875H61.25V16.5625H56.5625V21.25H61.25V25.9375H65.9375V21.25H70.625V16.5625Z" fill="#FFF7E6"/>
<path d="M63.5938 11.875V25.9375H65.9375V21.25H70.625V16.5625H65.9375V11.875H63.5938Z" fill="#FFEACC"/>
</svg>
