<svg width="100" height="100" viewBox="0 0 100 100" fill="none" xmlns="http://www.w3.org/2000/svg">
<path d="M44.1406 0C39.2941 0 35.3516 3.94258 35.3516 8.78906V11.9141L41.2109 14.8438H44.1406H47.0703L52.9297 11.9141V8.78906C52.9297 3.94258 48.9871 0 44.1406 0Z" fill="#FF6A4D"/>
<path d="M52.9297 11.9141V8.78906C52.9297 3.94258 48.9871 0 44.1406 0V14.8438H47.0703L52.9297 11.9141Z" fill="#E64D2E"/>
<path d="M0 88.2812C1.35762 94.9672 7.56172 100 14.6484 100C21.7352 100 28.1346 94.9672 29.4922 88.2812L23.1273 85.3516H4.06719L0 88.2812Z" fill="#474F54"/>
<path d="M14.6484 94.1406C9.80195 94.1406 5.85938 90.198 5.85938 85.3516C5.85938 80.5051 9.80195 76.5625 14.6484 76.5625C19.4949 76.5625 23.6328 80.5051 23.6328 85.3516C23.6328 90.198 19.4949 94.1406 14.6484 94.1406Z" fill="#F2F9FF"/>
<path d="M29.4922 35.5469H11.7188L5.85938 41.4062V58.9844L11.7188 61.9141H29.4922L38.2812 58.9844V43.1641L35.3516 41.4062L29.4922 35.5469Z" fill="#FF9100"/>
<path d="M5.85938 29.6875V41.4062H35.3516L38.2812 39.8896L35.3516 38.4766V29.6875H5.85938Z" fill="#FABE2C"/>
<path d="M47.0703 88.2812H0V85.3516C0 74.0254 9.37695 64.8438 20.7031 64.8438L25.5859 61.9141H52.9297V83.3984L47.0703 88.2812Z" fill="#FF6A4D"/>
<path d="M0 58.9844H41.2109V64.8438H0V58.9844Z" fill="#32393F"/>
<path d="M61.7188 73.8084V84.824L58.7891 88.2812H47.0703V64.8438H41.2109C37.9883 64.8438 35.3516 62.207 35.3516 58.9844V44.3359H52.9297V53.125C56.1523 53.125 58.7891 55.7617 58.7891 58.9844V70.7031L61.7188 73.8084Z" fill="#575F64"/>
<path d="M61.7188 73.8084V84.824L58.7891 88.2812H47.0703V64.8438H44.1406V44.3359H52.9297V53.125C56.1523 53.125 58.7891 55.7617 58.7891 58.9844V70.7031L61.7188 73.8084Z" fill="#474F54"/>
<path d="M52.9297 41.4062V38.4766C52.9297 33.6301 48.9871 29.6875 44.1406 29.6875C39.2941 29.6875 35.3516 33.6301 35.3516 38.4766V44.3359C35.3516 49.19 39.2865 53.125 44.1406 53.125H67.7734C72.6275 53.125 76.5625 49.19 76.5625 44.3359V41.4062H52.9297Z" fill="#FF6A4D"/>
<path d="M76.5625 44.3359V41.4062H52.9297V38.4766C52.9297 33.6301 48.9871 29.6875 44.1406 29.6875V53.125H67.7734C72.6275 53.125 76.5625 49.19 76.5625 44.3359Z" fill="#E64D2E"/>
<path d="M47.0703 14.8438H44.1406H41.2109L35.3516 17.7734V20.7031C35.3516 25.5496 39.2941 29.6875 44.1406 29.6875C48.9871 29.6875 52.9297 25.5496 52.9297 20.7031V17.7734L47.0703 14.8438Z" fill="#FFE1BA"/>
<path d="M52.9297 20.7031V17.7734L47.0703 14.8438H44.1406V29.6875C48.9871 29.6875 52.9297 25.5496 52.9297 20.7031Z" fill="#FFBFAB"/>
<path d="M44.1406 11.9141H35.3516V17.7734H44.1406H58.7891V11.9141H44.1406Z" fill="#474F54"/>
<path d="M44.1406 11.9141H58.7891V17.7734H44.1406V11.9141Z" fill="#32393F"/>
<path d="M84.6363 59.6395C84.3131 57.3592 83.6721 52.8674 82.3934 43.9209L70.7031 38.4766V61.9141C70.7031 66.5357 66.7217 70.7031 61.7188 70.7031H58.7891V88.2812H64.6484H94.1406L100 85.3516V79.4922C100 70.1195 93.5342 61.9484 84.6363 59.6395Z" fill="#E64D2E"/>
<path d="M88.2812 47.2656H79.4922C74.6457 47.2656 70.7031 43.323 70.7031 38.4766C70.7031 33.6301 74.6457 29.6875 79.4922 29.6875H88.2812V47.2656Z" fill="#FF6A4D"/>
<path d="M86.232 70.7922L85.3801 74.0477L80.4287 71.6154C74.7783 73.6488 70.7031 79.0098 70.7031 85.3516C70.7031 93.4283 77.2748 100 85.3516 100C93.4283 100 100 93.4283 100 85.3516C100 77.5764 93.892 71.2578 86.232 70.7922Z" fill="#32393F"/>
<path d="M85.3516 76.5625C80.5051 76.5625 76.5625 80.5051 76.5625 85.3516C76.5625 90.198 80.5051 94.1406 85.3516 94.1406C90.198 94.1406 94.1406 90.198 94.1406 85.3516C94.1406 80.5051 90.198 76.5625 85.3516 76.5625Z" fill="#DFE7F4"/>
<path d="M88.2527 84.9367L86.2322 70.7922C85.9348 70.7742 85.6531 70.7031 85.3516 70.7031C83.6168 70.7031 81.9744 71.0594 80.4289 71.6154L82.4506 85.7664L88.2527 84.9367Z" fill="#C7CFE1"/>
</svg>
