<svg width="20" height="20" viewBox="0 0 20 20" fill="none" xmlns="http://www.w3.org/2000/svg">
<path d="M18.0645 0.967743H1.93548C0.870968 0.967743 0 1.83871 0 2.90323C0 3.96774 0.870968 4.83871 1.93548 4.83871H18.0645C19.129 4.83871 20 3.96774 20 2.90323C20 1.83871 19.129 0.967743 18.0645 0.967743Z" fill="black"/>
<path d="M18.0645 8.06451H1.93548C0.870968 8.06451 0 8.93548 0 10C0 11.0645 0.870968 11.9355 1.93548 11.9355H18.0645C19.129 11.9355 20 11.0645 20 10C20 8.93548 19.129 8.06451 18.0645 8.06451Z" fill="black"/>
<path d="M18.0645 15.1613H1.93548C0.870968 15.1613 0 16.0323 0 17.0968C0 18.1613 0.870968 19.0323 1.93548 19.0323H18.0645C19.129 19.0323 20 18.1613 20 17.0968C20 16.0323 19.129 15.1613 18.0645 15.1613Z" fill="black"/>
</svg>
