<svg width="118" height="117" viewBox="0 0 118 117" fill="none" xmlns="http://www.w3.org/2000/svg">
<g clip-path="url(#clip0)">
<path d="M96.6758 20.2363H84.6055H72.5352C60.8891 20.2363 51.2109 29.7133 51.2109 41.3594C51.2109 51.9829 59.295 60.7998 69.5176 62.2674V71.5352C69.5176 72.7551 70.2513 73.8573 71.38 74.3228C72.4931 74.7873 73.7987 74.5383 74.6688 73.6686L84.6055 63.7319L85.8549 62.4824H96.6758C108.322 62.4824 118 53.0054 118 41.3594C118 29.7133 108.322 20.2363 96.6758 20.2363Z" fill="#FED843"/>
<path d="M96.6758 62.4824C108.322 62.4824 118 53.0054 118 41.3594C118 29.7133 108.322 20.2363 96.6758 20.2363H84.6055V63.7319L85.8549 62.4824H96.6758Z" fill="#FABE2C"/>
<path d="M91.8477 89.6406V101.711C91.8477 106.962 87.5607 110.764 82.8372 110.764C65.4539 110.764 48.4951 102.546 35.8816 89.9826C23.2682 77.4194 15 60.5109 15 43.1277C15 38.1346 19.0617 34.1172 24.0527 34.1172H36.123C37.4226 34.1172 38.5753 34.948 38.9837 36.1792L45.0189 54.2424C45.3146 55.1276 45.1838 56.0972 44.6688 56.8717L39.551 64.5505C41.4903 68.6182 44.9223 73.0641 48.8854 76.9789C52.8505 80.8917 57.3467 84.2734 61.4144 86.2127L69.0931 81.0948C69.8716 80.5819 70.8373 80.4471 71.7224 80.7448L89.8279 86.78C91.0591 87.1883 91.8477 88.3411 91.8477 89.6406Z" fill="#FF641A"/>
<path d="M91.8477 89.6405V101.711C91.8477 106.961 87.5607 110.764 82.8372 110.764C65.4539 110.764 48.4952 102.546 35.8817 89.9825L48.8854 76.9788C52.8505 80.8916 57.3467 84.2733 61.4144 86.2125L69.0931 81.0947C69.8717 80.5817 70.8373 80.447 71.7225 80.7447L89.8279 86.7799C91.0591 87.1882 91.8477 88.3409 91.8477 89.6405Z" fill="#F03800"/>
<path d="M72.5349 44.3767C74.2015 44.3767 75.5525 43.0257 75.5525 41.3591C75.5525 39.6926 74.2015 38.3416 72.5349 38.3416C70.8684 38.3416 69.5174 39.6926 69.5174 41.3591C69.5174 43.0257 70.8684 44.3767 72.5349 44.3767Z" fill="#613D5C"/>
<path d="M84.6055 44.3765C86.272 44.3765 87.623 43.0254 87.623 41.3589C87.623 39.6923 86.272 38.3413 84.6055 38.3413C82.9389 38.3413 81.5879 39.6923 81.5879 41.3589C81.5879 43.0254 82.9389 44.3765 84.6055 44.3765Z" fill="#613D5C"/>
<path d="M87.623 41.3589C87.623 39.6924 86.272 38.3413 84.6055 38.3413V44.3765C86.272 44.3765 87.623 43.0254 87.623 41.3589Z" fill="#4B2746"/>
<path d="M96.6756 44.3767C98.3421 44.3767 99.6932 43.0257 99.6932 41.3591C99.6932 39.6926 98.3421 38.3416 96.6756 38.3416C95.009 38.3416 93.658 39.6926 93.658 41.3591C93.658 43.0257 95.009 44.3767 96.6756 44.3767Z" fill="#4B2746"/>
</g>
<path d="M8.71523 7.69727C8.71523 7.1569 8.50365 6.73372 8.08047 6.42773C7.65729 6.11523 7.0974 5.95898 6.40078 5.95898C5.77578 5.95898 5.25495 6.11523 4.83828 6.42773C4.42813 6.73372 4.22305 7.13411 4.22305 7.62891H1.29336C1.29336 6.86068 1.5082 6.17057 1.93789 5.55859C2.37409 4.9401 2.98932 4.45833 3.78359 4.11328C4.58438 3.76823 5.45677 3.5957 6.40078 3.5957C8.04141 3.5957 9.32721 3.94727 10.2582 4.65039C11.1892 5.35352 11.6547 6.34961 11.6547 7.63867C11.6547 8.27018 11.4626 8.85612 11.0785 9.39648C10.7009 9.93685 10.1605 10.3698 9.45742 10.6953C10.2387 10.9688 10.8376 11.3854 11.2543 11.9453C11.671 12.4987 11.8793 13.1888 11.8793 14.0156C11.8793 15.2917 11.378 16.3073 10.3754 17.0625C9.3793 17.8112 8.05443 18.1855 6.40078 18.1855C5.36563 18.1855 4.43464 18.0098 3.60781 17.6582C2.78099 17.3001 2.15273 16.8151 1.72305 16.2031C1.29987 15.5846 1.08828 14.8685 1.08828 14.0547H4.0375C4.0375 14.5625 4.25885 14.9889 4.70156 15.334C5.14427 15.6725 5.71068 15.8418 6.40078 15.8418C7.18203 15.8418 7.79727 15.666 8.24648 15.3145C8.70221 14.9629 8.93008 14.5169 8.93008 13.9766C8.93008 13.2344 8.72826 12.7038 8.32461 12.3848C7.92096 12.0592 7.33177 11.8965 6.55703 11.8965H4.80898V9.60156H6.61563C8.01536 9.58203 8.71523 8.94727 8.71523 7.69727ZM20.1848 18C20.0546 17.7461 19.9602 17.4303 19.9016 17.0527C19.218 17.8145 18.3293 18.1953 17.2355 18.1953C16.2004 18.1953 15.341 17.8958 14.6574 17.2969C13.9803 16.6979 13.6418 15.9427 13.6418 15.0312C13.6418 13.9115 14.0552 13.0521 14.882 12.4531C15.7154 11.8542 16.9165 11.5514 18.4855 11.5449H19.7844V10.9395C19.7844 10.4512 19.6574 10.0605 19.4035 9.76758C19.1561 9.47461 18.7622 9.32812 18.2219 9.32812C17.7466 9.32812 17.3723 9.44206 17.0988 9.66992C16.8319 9.89779 16.6984 10.2103 16.6984 10.6074H13.8762C13.8762 9.99544 14.065 9.42904 14.4426 8.9082C14.8202 8.38737 15.354 7.98047 16.0441 7.6875C16.7342 7.38802 17.509 7.23828 18.3684 7.23828C19.6704 7.23828 20.7023 7.56706 21.4641 8.22461C22.2323 8.87565 22.6164 9.79362 22.6164 10.9785V15.5586C22.6229 16.5612 22.7629 17.3197 23.0363 17.834V18H20.1848ZM17.8508 16.0371C18.2674 16.0371 18.6516 15.946 19.0031 15.7637C19.3547 15.5749 19.6151 15.3242 19.7844 15.0117V13.1953H18.7297C17.3169 13.1953 16.565 13.6836 16.4738 14.6602L16.4641 14.8262C16.4641 15.1777 16.5878 15.4674 16.8352 15.6953C17.0826 15.9232 17.4211 16.0371 17.8508 16.0371ZM29.125 14.1035H27.9922V18H25.1699V7.43359H27.9922V11.4082H28.998L31.3027 7.43359H34.8672L31.4102 12.4629L35.1895 18H31.4297L29.125 14.1035ZM42.577 18C42.4467 17.7461 42.3523 17.4303 42.2937 17.0527C41.6102 17.8145 40.7215 18.1953 39.6277 18.1953C38.5926 18.1953 37.7332 17.8958 37.0496 17.2969C36.3725 16.6979 36.034 15.9427 36.034 15.0312C36.034 13.9115 36.4474 13.0521 37.2742 12.4531C38.1075 11.8542 39.3087 11.5514 40.8777 11.5449H42.1766V10.9395C42.1766 10.4512 42.0496 10.0605 41.7957 9.76758C41.5483 9.47461 41.1544 9.32812 40.6141 9.32812C40.1388 9.32812 39.7645 9.44206 39.491 9.66992C39.2241 9.89779 39.0906 10.2103 39.0906 10.6074H36.2684C36.2684 9.99544 36.4572 9.42904 36.8348 8.9082C37.2124 8.38737 37.7462 7.98047 38.4363 7.6875C39.1264 7.38802 39.9012 7.23828 40.7605 7.23828C42.0626 7.23828 43.0945 7.56706 43.8562 8.22461C44.6245 8.87565 45.0086 9.79362 45.0086 10.9785V15.5586C45.0151 16.5612 45.1551 17.3197 45.4285 17.834V18H42.577ZM40.243 16.0371C40.6596 16.0371 41.0437 15.946 41.3953 15.7637C41.7469 15.5749 42.0073 15.3242 42.1766 15.0117V13.1953H41.1219C39.7091 13.1953 38.9572 13.6836 38.866 14.6602L38.8562 14.8262C38.8562 15.1777 38.9799 15.4674 39.2273 15.6953C39.4747 15.9232 39.8133 16.0371 40.243 16.0371ZM52.9234 10.5488C52.9234 10.1777 52.7997 9.89128 52.5523 9.68945C52.3115 9.48112 51.9664 9.37695 51.5172 9.37695C51.0549 9.37695 50.6773 9.47461 50.3844 9.66992C50.0979 9.85872 49.9547 10.1289 49.9547 10.4805H47.1324C47.1324 9.52344 47.5296 8.74544 48.3238 8.14648C49.1181 7.54753 50.1337 7.24805 51.3707 7.24805C52.7314 7.24805 53.7991 7.51497 54.5738 8.04883C55.3551 8.58268 55.7457 9.34115 55.7457 10.3242C55.7457 10.793 55.6025 11.2259 55.316 11.623C55.0361 12.0137 54.6389 12.3262 54.1246 12.5605C55.329 12.9837 55.9313 13.8008 55.9313 15.0117C55.9313 15.9818 55.5146 16.7565 54.6813 17.3359C53.8544 17.9089 52.7509 18.1953 51.3707 18.1953C50.0882 18.1953 49.0335 17.8958 48.2066 17.2969C47.3798 16.6979 46.9664 15.8906 46.9664 14.875H49.7887C49.7887 15.2331 49.9482 15.5228 50.2672 15.7441C50.5862 15.9655 51.0029 16.0762 51.5172 16.0762C52.0185 16.0762 52.4091 15.959 52.6891 15.7246C52.969 15.4902 53.109 15.1842 53.109 14.8066C53.109 14.3444 52.9755 14.0156 52.7086 13.8203C52.4417 13.6185 52.0413 13.5176 51.5074 13.5176H49.9742V11.6816H51.6051C52.484 11.6556 52.9234 11.278 52.9234 10.5488Z" fill="black"/>
<defs>
<clipPath id="clip0">
<rect width="103" height="103" fill="white" transform="translate(15 14)"/>
</clipPath>
</defs>
</svg>
