<svg width="143" height="133" viewBox="0 0 143 133" fill="none" xmlns="http://www.w3.org/2000/svg">
<path d="M8.53789 24.0078L9.3582 16.7812H17.327V19.1348H11.6727L11.3211 22.1914C11.9917 21.8333 12.7046 21.6543 13.4598 21.6543C14.8139 21.6543 15.8751 22.0742 16.6434 22.9141C17.4116 23.7539 17.7957 24.929 17.7957 26.4395C17.7957 27.3574 17.6004 28.181 17.2098 28.9102C16.8257 29.6328 16.2723 30.196 15.5496 30.5996C14.827 30.9967 13.9741 31.1953 12.991 31.1953C12.1316 31.1953 11.3341 31.0228 10.5984 30.6777C9.86276 30.3262 9.28008 29.8346 8.85039 29.2031C8.42721 28.5716 8.2026 27.8522 8.17656 27.0449H10.9695C11.0281 27.6374 11.2332 28.0996 11.5848 28.4316C11.9428 28.7572 12.4083 28.9199 12.9813 28.9199C13.6193 28.9199 14.1108 28.6921 14.4559 28.2363C14.8009 27.7741 14.9734 27.123 14.9734 26.2832C14.9734 25.4759 14.7749 24.8574 14.3777 24.4277C13.9806 23.998 13.4174 23.7832 12.6883 23.7832C12.0177 23.7832 11.4741 23.959 11.0574 24.3105L10.784 24.5645L8.53789 24.0078ZM20.0563 29.6133C20.0563 29.1641 20.206 28.7995 20.5055 28.5195C20.8115 28.2396 21.1923 28.0996 21.648 28.0996C22.1103 28.0996 22.4911 28.2396 22.7906 28.5195C23.0966 28.7995 23.2496 29.1641 23.2496 29.6133C23.2496 30.056 23.0999 30.4173 22.8004 30.6973C22.5009 30.9707 22.1168 31.1074 21.648 31.1074C21.1858 31.1074 20.8049 30.9707 20.5055 30.6973C20.206 30.4173 20.0563 30.056 20.0563 29.6133ZM20.0563 21.6152C20.0563 21.166 20.206 20.8014 20.5055 20.5215C20.8115 20.2415 21.1923 20.1016 21.648 20.1016C22.1103 20.1016 22.4911 20.2415 22.7906 20.5215C23.0966 20.8014 23.2496 21.166 23.2496 21.6152C23.2496 22.0579 23.0999 22.4193 22.8004 22.6992C22.5009 22.9727 22.1168 23.1094 21.648 23.1094C21.1858 23.1094 20.8049 22.9727 20.5055 22.6992C20.206 22.4193 20.0563 22.0579 20.0563 21.6152ZM35.2172 25.1211C35.2172 27.0872 34.8103 28.5911 33.9965 29.6328C33.1827 30.6745 31.9913 31.1953 30.4223 31.1953C28.8728 31.1953 27.6879 30.6842 26.8676 29.6621C26.0473 28.64 25.6273 27.1751 25.6078 25.2676V22.6504C25.6078 20.6647 26.018 19.1576 26.8383 18.1289C27.6651 17.1003 28.8533 16.5859 30.4027 16.5859C31.9522 16.5859 33.1371 17.097 33.9574 18.1191C34.7777 19.1348 35.1977 20.5964 35.2172 22.5039V25.1211ZM32.3949 22.25C32.3949 21.0716 32.2322 20.2155 31.9066 19.6816C31.5876 19.1413 31.0863 18.8711 30.4027 18.8711C29.7387 18.8711 29.2471 19.1283 28.9281 19.6426C28.6156 20.1504 28.4496 20.9479 28.4301 22.0352V25.4922C28.4301 26.651 28.5863 27.5137 28.8988 28.0801C29.2178 28.64 29.7257 28.9199 30.4223 28.9199C31.1124 28.9199 31.6104 28.6497 31.9164 28.1094C32.2224 27.569 32.3819 26.7422 32.3949 25.6289V22.25ZM46.9016 25.1211C46.9016 27.0872 46.4947 28.5911 45.6809 29.6328C44.8671 30.6745 43.6757 31.1953 42.1066 31.1953C40.5572 31.1953 39.3723 30.6842 38.552 29.6621C37.7316 28.64 37.3117 27.1751 37.2922 25.2676V22.6504C37.2922 20.6647 37.7023 19.1576 38.5227 18.1289C39.3495 17.1003 40.5376 16.5859 42.0871 16.5859C43.6366 16.5859 44.8215 17.097 45.6418 18.1191C46.4621 19.1348 46.882 20.5964 46.9016 22.5039V25.1211ZM44.0793 22.25C44.0793 21.0716 43.9165 20.2155 43.591 19.6816C43.272 19.1413 42.7707 18.8711 42.0871 18.8711C41.423 18.8711 40.9315 19.1283 40.6125 19.6426C40.3 20.1504 40.134 20.9479 40.1145 22.0352V25.4922C40.1145 26.651 40.2707 27.5137 40.5832 28.0801C40.9022 28.64 41.41 28.9199 42.1066 28.9199C42.7967 28.9199 43.2948 28.6497 43.6008 28.1094C43.9068 27.569 44.0663 26.7422 44.0793 25.6289V22.25Z" fill="black"/>
<g clip-path="url(#clip0)">
<path d="M57.9438 50.0052C54.2324 44.7589 50.1039 42.4024 46.7472 41.3827C42.4958 40.0913 37.982 42.337 36.4478 46.5069C35.2364 49.7994 34.6259 54.5137 36.5719 60.6384C36.5719 60.6384 38.8759 69.4366 48.0532 70.0699C52.2425 70.3591 56.2454 68.3675 58.5416 64.8517C63.5718 57.1496 57.9438 50.0052 57.9438 50.0052Z" fill="#E59770"/>
<path d="M58.5418 64.8519C57.194 66.9158 55.2573 68.455 53.0407 69.3146C54.4901 68.4325 55.7518 67.2272 56.7136 65.7542C61.7435 58.0516 56.1163 50.9074 56.1163 50.9074C52.4043 45.6608 48.2757 43.3044 44.9193 42.2848C43.1526 41.7485 41.3401 41.8225 39.7157 42.3915C41.7255 41.0746 44.2806 40.6332 46.7475 41.3826C50.1039 42.4022 54.2325 44.7586 57.9439 50.0055C57.9439 50.0054 63.5718 57.1493 58.5418 64.8519Z" fill="#DB7E56"/>
<path d="M70.0883 44.0121C66.3769 38.7658 62.2484 36.4092 58.8916 35.3896C54.6402 34.0982 50.1265 36.3438 48.5923 40.5138C47.3809 43.8062 46.7704 48.5206 48.7164 54.6452C48.7164 54.6452 51.0204 63.4434 60.1977 64.0768C64.387 64.3659 68.3899 62.3744 70.6861 58.8585C75.7162 51.1564 70.0883 44.0121 70.0883 44.0121Z" fill="#F9E8D4"/>
<path d="M70.6862 58.8588C69.3384 60.9226 67.4017 62.4619 65.185 63.3214C66.6344 62.4393 67.8962 61.234 68.858 59.761C73.8878 52.0585 68.2607 44.9142 68.2607 44.9142C64.5486 39.6677 60.42 37.3113 57.0636 36.2916C55.2969 35.7553 53.4845 35.8294 51.8601 36.3983C53.8698 35.0815 56.425 34.64 58.8919 35.3894C62.2483 36.4091 66.3769 38.7655 70.0882 44.0124C70.0882 44.0122 75.716 51.1562 70.6862 58.8588Z" fill="#E8D0BA"/>
<path d="M64.197 58.9608C67.2455 57.4438 68.4826 53.7339 66.9602 50.6744C65.4378 47.615 61.7324 46.3645 58.6839 47.8815C55.6354 49.3984 54.3983 53.1084 55.9207 56.1678C57.4431 59.2273 61.1485 60.4777 64.197 58.9608Z" fill="#FEC007"/>
<path d="M66.9608 50.6749C68.4827 53.7343 67.2457 57.4443 64.1966 58.961C62.7951 59.6587 61.2548 59.7711 59.8516 59.3909C60.5932 59.3252 61.3349 59.1216 62.0413 58.7705C65.0894 57.2534 66.3268 53.5442 64.8049 50.4847C63.9825 48.8322 62.5236 47.7068 60.8752 47.2619C63.3338 47.0427 65.7911 48.3256 66.9608 50.6749Z" fill="#EFAD0A"/>
</g>
<g clip-path="url(#clip1)">
<path d="M42.9363 103.5H66.8167L64.6113 129.967C64.5082 131.204 63.4736 132.156 62.2317 132.156H47.5213C46.2794 132.156 45.2448 131.204 45.1417 129.967L42.9363 103.5Z" fill="#BFE1ED"/>
<path d="M13.0859 74.8434V68.8733H27.4141V74.8434C34.2497 80.9193 38.1605 89.6283 38.1602 98.7739V124.992C38.1602 128.949 34.9528 132.156 30.9961 132.156H9.5038C5.54712 132.156 2.33969 128.949 2.33969 124.992V98.7739C2.33939 89.6283 6.25025 80.9193 13.0859 74.8434Z" fill="#D1EEF6"/>
<path d="M20.2022 87.9502C15.4461 85.2434 9.71589 84.8517 4.63579 86.8863C3.12088 90.6666 2.34163 94.7015 2.33969 98.774V124.992C2.33969 128.949 5.54712 132.156 9.5038 132.156H30.9961C34.9528 132.156 38.1602 128.949 38.1602 124.992V98.774C38.1592 95.3483 37.6086 91.9452 36.5292 88.6941C31.2827 91.0797 25.2101 90.8032 20.2022 87.9502Z" fill="#F2F2F2"/>
<path d="M13.0859 63H27.4141C29.3924 63 30.9962 64.6037 30.9962 66.5821C30.9962 68.5604 29.3924 70.1641 27.4141 70.1641H13.0859C11.1075 70.1641 9.50381 68.5604 9.50381 66.5821C9.50381 64.6037 11.1075 63 13.0859 63Z" fill="#BFE1ED"/>
<path d="M33.3842 105.888C32.7248 105.888 32.1902 105.353 32.1902 104.694V103.5C32.1902 102.841 32.7248 102.306 33.3842 102.306C34.0436 102.306 34.5782 102.841 34.5782 103.5V104.694C34.5782 105.353 34.0436 105.888 33.3842 105.888Z" fill="#C7CCD1"/>
<path d="M33.3842 119.022C32.7248 119.022 32.1902 118.487 32.1902 117.828V109.47C32.1902 108.811 32.7248 108.276 33.3842 108.276C34.0436 108.276 34.5782 108.811 34.5782 109.47V117.828C34.5782 118.487 34.0436 119.022 33.3842 119.022Z" fill="#C7CCD1"/>
<path d="M45.1417 129.967C45.2448 131.204 46.2794 132.156 47.5213 132.156H62.2317C63.4736 132.156 64.5082 131.204 64.6113 129.967L66.2197 110.664H43.5333L45.1417 129.967Z" fill="#F2F2F2"/>
<path d="M62.9734 85.6057C64.0117 80.9395 61.0963 76.3019 56.4301 75.225C51.7639 74.1481 47.1109 77.0406 46 81.6893L62.9734 85.6057Z" fill="#F4CA62"/>
<path d="M56.4301 75.2252C54.6199 74.807 52.8143 74.9936 51.2139 75.6412L54.4203 83.6322L60.9976 77.955C59.8363 76.6368 58.2731 75.65 56.4301 75.2252Z" fill="#FBB540"/>
</g>
<g clip-path="url(#clip2)">
<path d="M121.629 57.4183H86.3103C83.1092 57.416 80.3675 55.1271 79.7955 51.9778L76.3648 33.126H131.575L128.152 51.9779C127.579 55.1293 124.833 57.4205 121.629 57.4183Z" fill="#BF7341"/>
<path d="M87.8617 57.4184H121.629C124.83 57.4162 127.572 55.1272 128.144 51.978L131.575 33.126H124.305C114.681 47.0158 97.8757 54.1965 87.8617 57.4184Z" fill="#B56D3E"/>
<path d="M98.4488 28.7092H85.1984V6.62526C85.1984 2.9659 88.1643 0 91.8236 0C95.4829 0 98.4488 2.9659 98.4488 6.62526V28.7092Z" fill="#C96E23"/>
<path d="M90.3033 18.5289L95.8242 14.113L94.4449 12.3885L88.9239 16.8044L90.3033 18.5289Z" fill="#B5611D"/>
<path d="M128.262 28.7091H115.012V26.5008C115.012 22.8414 117.978 19.8755 121.637 19.8755C125.296 19.8755 128.262 22.8414 128.262 26.5008V28.7091H128.262Z" fill="#C96E23"/>
<path d="M120.533 23.1882H118.324V25.3966H120.533V23.1882Z" fill="#B5611D"/>
<path d="M126.054 24.2925H123.845V26.5009H126.054V24.2925Z" fill="#B5611D"/>
<path d="M119.78 28.7092H105.425L116.999 3.64386C118.021 1.42447 120.239 0.00225153 122.682 0H123.103C124.526 0 125.906 0.483579 127.016 1.37256C129.254 3.16253 129.99 6.24425 128.804 8.85353L119.78 28.7092Z" fill="#D68033"/>
<path d="M117.878 11.0011L125.607 8.79126L125 6.66778L117.271 8.87763L117.878 11.0011Z" fill="#C96E23"/>
<path d="M116.645 18.3008L115.978 16.1951L121.655 14.4053L122.322 16.5121L116.645 18.3008Z" fill="#C96E23"/>
<path d="M110.927 26.4487L117.904 24.241L117.237 22.1355L110.261 24.3432L110.927 26.4487Z" fill="#C96E23"/>
<path d="M76.3648 28.7092H131.575C132.795 28.7092 133.783 29.6975 133.783 30.9176C133.783 32.1377 132.795 33.126 131.575 33.126H76.3648C75.1447 33.1261 74.1564 32.1378 74.1564 30.9176C74.1564 29.6975 75.1447 28.7092 76.3648 28.7092Z" fill="#BF7341"/>
<path d="M126.054 28.7092V26.5008C126.054 14.3037 116.167 4.41676 103.97 4.41676C91.7728 4.41676 81.8858 14.3037 81.8858 26.5008V28.7092H77.469V26.5008C77.469 11.8646 89.3336 0 103.97 0C118.606 0 130.471 11.8646 130.471 26.5008V28.7092H126.054Z" fill="#965735"/>
<path d="M115.012 28.7092C114.707 17.6385 109.887 8.8335 103.97 8.8335C98.0524 8.8335 93.2326 17.6384 92.9278 28.7092H115.012Z" fill="#F09E3E"/>
<path d="M104.196 22.3766L98.4487 24.2924C98.4498 21.6533 100.14 19.3114 102.645 18.4788L108.386 16.563C108.387 19.2009 106.698 21.5429 104.196 22.3766Z" fill="#D68033"/>
<path d="M114.006 21.0063C110.947 24.3013 107.237 26.9249 103.111 28.7092H115.012C114.949 26.1133 114.612 23.5317 114.006 21.0063Z" fill="#EB9634"/>
<path d="M123.845 37.543H117.22V39.7514H123.845V37.543Z" fill="#965735"/>
<path d="M112.803 37.543H106.178V39.7514H112.803V37.543Z" fill="#965735"/>
<path d="M101.761 37.543H95.1362V39.7514H101.761V37.543Z" fill="#965735"/>
<path d="M90.7194 37.543H84.0941V39.7514H90.7194V37.543Z" fill="#965735"/>
<path d="M90.7194 44.168H84.0941V46.3763H90.7194V44.168Z" fill="#965735"/>
<path d="M90.7194 50.7935H84.0941V53.0018H90.7194V50.7935Z" fill="#965735"/>
<path d="M92.9278 28.7091H79.6774V26.5008C79.6774 22.8414 82.6433 19.8755 86.3026 19.8755C89.962 19.8755 92.9279 22.8414 92.9279 26.5008V28.7091H92.9278Z" fill="#D68033"/>
<path d="M92.9278 26.5008C92.9289 24.5452 92.0643 22.6902 90.5659 21.4336C89.073 24.5662 86.5929 27.1225 83.5056 28.7092H92.9278V26.5008Z" fill="#D97A27"/>
<path d="M85.1984 23.1882H82.99V25.3966H85.1984V23.1882Z" fill="#C96E23"/>
<path d="M89.6151 24.2925H87.4067V26.5009H89.6151V24.2925Z" fill="#C96E23"/>
<path d="M130.471 34.2301H79.6774C79.0678 34.2301 78.5731 33.7354 78.5731 33.1259C78.5731 32.5163 79.0678 32.0217 79.6774 32.0217H130.471C131.08 32.0217 131.575 32.5164 131.575 33.126C131.575 33.7355 131.08 34.2301 130.471 34.2301Z" fill="#965735"/>
<path d="M138.2 47.4806C138.2 49.3102 136.717 50.7932 134.887 50.7932V61.8353C134.887 63.0553 133.899 64.0436 132.679 64.0436H99.5529C98.3329 64.0436 97.3446 63.0553 97.3446 61.8353V50.7932C95.5149 50.7932 94.0319 49.3103 94.0319 47.4806C94.0319 45.651 95.5148 44.168 97.3446 44.168H134.887C136.717 44.168 138.2 45.651 138.2 47.4806Z" fill="#F09E3E"/>
<path d="M130.886 50.7932C130.867 50.8142 130.845 50.8319 130.826 50.8529C127.785 57.2572 122.324 61.4764 117.678 64.0436H132.679C133.899 64.0436 134.887 63.0553 134.887 61.8352V50.7932H130.886Z" fill="#F09235"/>
<path d="M118.324 47.4806C118.324 49.3102 116.841 50.7932 115.012 50.7932V61.8353C115.012 63.0553 114.023 64.0436 112.803 64.0436H99.5529C98.3329 64.0436 97.3446 63.0553 97.3446 61.8353V50.7932C95.5149 50.7932 94.0319 49.3103 94.0319 47.4806C94.0319 45.651 95.5148 44.168 97.3446 44.168H115.012C116.841 44.168 118.324 45.651 118.324 47.4806Z" fill="#F0DBC2"/>
<path d="M130.471 47.4805H128.262V49.6889H130.471V47.4805Z" fill="#D68033"/>
<path d="M124.95 50.793H122.741V53.0014H124.95V50.793Z" fill="#D68033"/>
<path d="M131.575 56.3142H129.366V58.5226H131.575V56.3142Z" fill="#D68033"/>
<path d="M120.533 58.5225H118.324V60.7308H120.533V58.5225Z" fill="#D68033"/>
</g>
<g clip-path="url(#clip3)">
<path d="M113.223 131.667H108.833C96.1017 131.667 85.7814 121.347 85.7814 108.616H136.275C136.275 121.347 125.954 131.667 113.223 131.667Z" fill="#EA9D2D"/>
<path d="M134.788 82.2981C134.64 82.2981 134.491 82.2684 134.346 82.2047C133.792 81.9588 133.541 81.3122 133.785 80.7568L136.445 74.7327C136.691 74.1806 137.336 73.9303 137.893 74.1718C138.447 74.4177 138.697 75.0643 138.454 75.6197L135.794 81.6438C135.613 82.0544 135.211 82.2981 134.788 82.2981Z" fill="#79A73A"/>
<path d="M134.788 82.298C134.303 82.298 133.859 81.973 133.728 81.4813L131.928 74.6877C131.772 74.1027 132.122 73.5012 132.708 73.3453C133.292 73.1905 133.894 73.5396 134.051 74.1257L135.852 80.9193C136.008 81.5043 135.658 82.1058 135.072 82.2617C134.976 82.287 134.882 82.298 134.788 82.298Z" fill="#79A73A"/>
<path d="M134.791 82.2978C134.394 82.2978 134.012 82.0837 133.816 81.7072C133.536 81.1705 133.744 80.5063 134.282 80.2265L140.515 76.9786C141.054 76.6976 141.715 76.9072 141.996 77.4451C142.276 77.9818 142.067 78.646 141.529 78.9258L135.297 82.1738C135.135 82.2582 134.962 82.2978 134.791 82.2978Z" fill="#79A73A"/>
<path d="M102.684 77.972C100.729 74.9479 97.3345 72.9414 93.4653 72.9414C92.9921 72.9414 92.5279 72.9809 92.0701 73.0402C91.1568 69.8163 88.1996 67.4529 84.6837 67.4529C80.4402 67.4529 77 70.893 77 75.1366C77 78.6525 79.3633 81.6097 82.5872 82.5229C82.5279 82.9806 82.4884 83.445 82.4884 83.918C82.4884 87.7873 84.4949 91.1814 87.519 93.1363C88.2819 99.9913 94.0908 105.323 101.149 105.323C108.727 105.323 114.87 99.1801 114.87 91.6018C114.87 84.5438 109.539 78.7349 102.684 77.972Z" fill="#79A73A"/>
<path d="M114.198 87.3901C112.569 82.3462 108.109 78.5758 102.684 77.9709C100.729 74.9479 97.3345 72.9413 93.4653 72.9413C92.9921 72.9413 92.5279 72.9808 92.0701 73.0401C91.1568 69.8163 88.1996 67.4529 84.6837 67.4529C80.4402 67.4529 77 70.893 77 75.1366C77 78.6525 79.3633 81.6097 82.5872 82.5229C82.5279 82.9806 82.4884 83.445 82.4884 83.918C82.4884 87.7873 84.4949 91.1814 87.519 93.1363C87.7165 94.909 88.2577 96.5774 89.0646 98.0813C89.7385 98.2482 90.4234 98.3919 91.1239 98.5049C101.412 100.168 110.981 95.3263 114.198 87.3901Z" fill="#89B140"/>
<path d="M112.448 104.452L114 102.9L87.6565 76.5565L86.1042 78.1089L112.448 104.452Z" fill="#6F9935"/>
<path d="M105.54 97.0903H96.7583V94.895H104.442V88.3088H106.637V95.9926C106.637 96.5997 106.147 97.0903 105.54 97.0903Z" fill="#6F9935"/>
<path d="M98.9536 90.5041H91.2699V88.3087H97.856V82.8203H100.051V89.4064C100.051 90.0134 99.5606 90.5041 98.9536 90.5041Z" fill="#6F9935"/>
<path d="M92.3675 83.9182H86.8791V81.7228H91.2699V77.332H93.4652V82.8204C93.4651 83.4275 92.9746 83.9182 92.3675 83.9182Z" fill="#6F9935"/>
<path d="M117.614 108.616L124.658 85.1276C126.371 81.2451 130.908 79.4877 134.79 81.2012C138.673 82.9147 140.43 87.4514 138.717 91.3338L128.356 108.616" fill="#F26B32"/>
<path d="M118.712 106.421C124.017 106.421 128.883 104.539 132.677 101.406L138.716 91.3331C140.429 87.4506 138.672 82.9149 134.789 81.2005C130.907 79.487 126.371 81.2443 124.657 85.1269L118.279 106.399C118.424 106.402 118.566 106.421 118.712 106.421Z" fill="#F27332"/>
<path d="M131.246 89.2306L132.132 87.2224L126.107 84.5631L125.221 86.5713L131.246 89.2306Z" fill="#D85021"/>
<path d="M130.474 93.6938L129.589 95.7026L134.734 97.9748L135.873 96.0769L130.474 93.6938Z" fill="#D85021"/>
<path d="M120.527 98.9024L125.925 101.284L126.81 99.2756L121.162 96.7827L120.527 98.9024Z" fill="#D85021"/>
<path d="M127.578 94.8164L128.464 92.8081L126.457 91.9219L125.57 93.9302L127.578 94.8164Z" fill="#D85021"/>
<path d="M135.59 114.104H122.005V116.299H134.934C135.189 115.583 135.406 114.852 135.59 114.104Z" fill="#FBB540"/>
<path d="M106.637 108.616V116.3C106.637 117.151 105.163 118.895 103.344 118.895C101.525 118.895 100.051 117.153 100.051 116.3V114.104C100.051 112.891 99.0689 111.909 97.8559 111.909C96.6429 111.909 95.6605 112.891 95.6605 114.104C95.6605 115.317 94.6781 116.3 93.4651 116.3C92.2522 116.3 91.2698 115.317 91.2698 114.104V108.616H95.6605H106.637Z" fill="#F7BA61"/>
<path d="M124.658 85.1277L124.34 86.1881L131.243 89.2352L132.131 87.2265L125.181 84.1584C124.988 84.467 124.808 84.7854 124.658 85.1277Z" fill="#D85021"/>
<path d="M134.027 118.495H124.2V120.69H132.832C133.269 119.982 133.667 119.251 134.027 118.495Z" fill="#FBB540"/>
<path d="M97.0041 128.374C100.465 130.451 104.502 131.667 108.833 131.667H113.223C117.554 131.667 121.591 130.451 125.052 128.374H97.0041Z" fill="#C48426"/>
</g>
<defs>
<clipPath id="clip0">
<rect width="37.791" height="37.9269" fill="white" transform="translate(28 43.8359) rotate(-26.4553)"/>
</clipPath>
<clipPath id="clip1">
<rect width="69.1564" height="69.1564" fill="white" transform="translate(0 63)"/>
</clipPath>
<clipPath id="clip2">
<rect width="64.0436" height="64.0436" fill="white" transform="translate(74.1564)"/>
</clipPath>
<clipPath id="clip3">
<rect width="65.12" height="65.12" fill="white" transform="translate(77 67)"/>
</clipPath>
</defs>
</svg>
