<svg width="240" height="148" viewBox="0 0 240 148" fill="none" xmlns="http://www.w3.org/2000/svg">
<g clip-path="url(#clip0)">
<path d="M223.969 147.368H16.0311C12.3265 147.368 9.32332 144.765 9.32332 141.554V135.739C9.32332 132.528 12.3265 129.925 16.0311 129.925H223.969C227.674 129.925 230.677 132.528 230.677 135.739V141.554C230.677 144.765 227.674 147.368 223.969 147.368Z" fill="#F6C358"/>
<path d="M233.6 134.737H6.4001C2.86539 134.737 0 132.636 0 130.045V115.97C0 113.379 2.86539 111.278 6.4001 111.278H233.6C237.135 111.278 240 113.379 240 115.97V130.045C240 132.636 237.135 134.737 233.6 134.737Z" fill="#DC8744"/>
</g>
<g clip-path="url(#clip1)">
<path d="M161.028 112.782H89.014C89.014 109.139 90.9697 105.253 92.4801 102.798L94.2936 94.4235L101.37 76.9996L101.869 75.7722L104.357 75.162L145.024 65.1802L148.839 76.6286L157.562 102.798C159.072 105.253 161.028 109.139 161.028 112.782Z" fill="#FC3552"/>
<path d="M148.839 76.6289C145.798 83.4861 140.966 89.1712 133.618 91.6465C131.067 92.5078 128.212 92.9796 125.021 92.9796C121.876 92.9796 119.058 92.5214 116.533 91.6855C109.258 89.2723 104.435 83.7253 101.371 76.9994L101.869 75.772L104.357 75.1618L145.024 65.1802L148.839 76.6289Z" fill="#E21E43"/>
<path d="M121.934 79.8223C111.698 83.4121 107.837 106.857 107.837 112.782H89.014C89.014 109.139 90.9697 105.252 92.4801 102.798L94.2936 94.4234L101.869 75.7723L104.357 75.1621C116.638 76.5228 126.545 78.2059 121.934 79.8223Z" fill="#E21E43"/>
<path d="M151.956 98.3056C152.016 98.5151 154.378 106.77 147.065 106.77C139.659 106.77 137.141 96.8134 137.141 96.8134C135.782 92.4017 134.522 87.3382 133.698 83.8244L133.618 83.5942C142.292 80.6722 130.806 79.4287 121.934 79.8226C115.088 80.1241 109.802 81.4022 116.532 83.6334C115.708 87.1541 114.427 92.3233 113.043 96.8159C113.043 96.8159 110.525 106.77 103.12 106.77C95.8063 106.77 98.1683 98.5129 98.2281 98.3056C95.8522 103.503 79.9398 107.659 85.7152 99.1922C97.2684 79.3576 78.5096 34.4798 92.6018 15.1701C97.1285 8.96908 106.6 10.0445 106.6 10.0445C106.6 10.0445 108.888 -0.469142 121.041 0.0165697C148.825 1.12192 163.067 21.691 161.969 30.9567L162.082 30.9706C164.233 52.9029 155.441 83.6911 164.469 99.1922C170.242 107.659 154.332 103.502 151.956 98.3056Z" fill="#FEC755"/>
<path d="M116.532 83.6334C115.708 87.1541 114.427 92.3233 113.043 96.8158C113.043 96.8158 110.525 106.77 103.12 106.77C95.8063 106.77 98.1683 98.5129 98.228 98.3056C95.8522 103.503 79.9398 107.659 85.7152 99.1922C97.2684 79.3576 78.5096 34.4798 92.6018 15.1701C97.1285 8.96907 106.6 10.0445 106.6 10.0445C101.616 10.2308 98.196 36.3975 109.903 43.5356C116.422 47.5099 120.024 65.0558 121.933 79.8223C115.088 80.1241 109.802 81.402 116.532 83.6334Z" fill="#E5AA41"/>
<path d="M162.295 44.8345C159.66 45.7118 154.75 44.6596 153.306 42.9487V42.9465C153.258 42.0347 153.173 41.125 153.051 40.2201L152.48 34.5488C155.622 35.7324 158.561 36.1492 160.59 34.1136C161.359 33.3422 161.816 32.2624 161.969 30.9568L162.082 30.9707C162.506 35.3086 162.504 39.9921 162.295 44.8345Z" fill="#E5AA41"/>
<path d="M153.347 44.5856C153.347 59.205 148.986 78.4178 133.618 83.5941C131.067 84.4554 128.212 84.9272 125.021 84.9272C121.876 84.9272 119.058 84.469 116.533 83.6331C101.079 78.5074 96.6972 59.2394 96.6972 44.5854L96.6994 44.5832C100.632 45.5549 115.858 36.4918 116.599 26.9822C117.235 29.0338 118.578 31.021 120.348 32.8468C123.107 35.6906 126.903 38.1474 130.677 39.849C136.32 42.3981 141.916 43.2637 143.927 41.2467C148.148 37.0123 134.965 37.0859 136.595 32.331C138.555 26.6066 145.49 31.7276 151.807 34.2859L152.195 35.9162C152.943 38.7507 153.347 41.6683 153.347 44.5856Z" fill="#FFE2C7"/>
<path d="M125.021 84.9271C121.876 84.9271 119.057 84.4689 116.532 83.633C101.079 78.5074 96.697 59.2393 96.697 44.5853L96.6992 44.5831C98.857 45.1173 104.419 42.626 109.12 38.6978C103.205 54.6848 104.474 79.477 125.021 84.9271Z" fill="#E8C5A7"/>
<path d="M115.925 51.2511C115.485 51.2511 115.044 51.0826 114.708 50.7452C113.754 49.7887 112.486 49.2618 111.137 49.2618C109.789 49.2618 108.521 49.7887 107.567 50.7452C106.894 51.4196 105.804 51.4199 105.132 50.7452C104.46 50.0707 104.46 48.9774 105.132 48.3029C106.736 46.6938 108.869 45.8079 111.137 45.8079C113.406 45.8079 115.539 46.6938 117.143 48.3029C117.815 48.9774 117.815 50.0707 117.143 50.7452C116.807 51.0824 116.366 51.2511 115.925 51.2511Z" fill="#3B4C5B"/>
<path d="M145.452 51.2511C145.011 51.2511 144.571 51.0826 144.235 50.7451C142.266 48.7706 139.063 48.7701 137.093 50.7451C136.421 51.4199 135.331 51.4196 134.659 50.7451C133.986 50.0707 133.986 48.9772 134.659 48.3029C137.97 44.9812 143.358 44.9816 146.669 48.3029C147.342 48.9774 147.342 50.0707 146.669 50.7451C146.333 51.0824 145.892 51.2511 145.452 51.2511Z" fill="#3B4C5B"/>
<path d="M125.901 75.1977C118.805 75.1977 112.375 70.9871 109.519 64.4711C109.136 63.5979 109.532 62.5791 110.402 62.1952C111.273 61.8117 112.288 62.2077 112.671 63.0809C114.978 68.3433 120.171 71.7438 125.901 71.7438C131.631 71.7438 136.825 68.3433 139.131 63.0809C139.514 62.2077 140.53 61.8117 141.4 62.1952C142.271 62.5791 142.666 63.5979 142.283 64.4711C139.427 70.9873 132.996 75.1977 125.901 75.1977Z" fill="#E8C5A7"/>
<path d="M143.824 59.775C146.647 59.775 148.934 58.6442 148.934 57.2493C148.934 55.8544 146.647 54.7236 143.824 54.7236C141.002 54.7236 138.714 55.8544 138.714 57.2493C138.714 58.6442 141.002 59.775 143.824 59.775Z" fill="#F995A9"/>
<path d="M107.978 59.775C110.8 59.775 113.088 58.6442 113.088 57.2493C113.088 55.8544 110.8 54.7236 107.978 54.7236C105.155 54.7236 102.867 55.8544 102.867 57.2493C102.867 58.6442 105.155 59.775 107.978 59.775Z" fill="#F995A9"/>
<path d="M128.77 61.3807H123.031C122.08 61.3807 121.31 60.6075 121.31 59.6537C121.31 58.6999 122.08 57.9268 123.031 57.9268H128.77C129.721 57.9268 130.492 58.6999 130.492 59.6537C130.492 60.6073 129.721 61.3807 128.77 61.3807Z" fill="#E8C5A7"/>
</g>
<g clip-path="url(#clip2)">
<path d="M98.7842 126.246H95.1949C84.7879 126.246 76.3514 117.81 76.3514 107.403H117.628C117.628 117.81 109.191 126.246 98.7842 126.246Z" fill="#EA9D2D"/>
<path d="M116.413 85.889C116.292 85.889 116.169 85.8648 116.051 85.8127C115.598 85.6117 115.393 85.0831 115.593 84.6291L117.767 79.7046C117.968 79.2533 118.495 79.0487 118.95 79.2461C119.403 79.4471 119.608 79.9757 119.409 80.4297L117.235 85.3542C117.087 85.6898 116.758 85.889 116.413 85.889Z" fill="#79A73A"/>
<path d="M116.413 85.889C116.016 85.889 115.653 85.6234 115.546 85.2214L114.074 79.6679C113.947 79.1897 114.233 78.698 114.712 78.5705C115.19 78.444 115.681 78.7294 115.81 79.2085L117.282 84.762C117.409 85.2402 117.123 85.7319 116.644 85.8594C116.566 85.8801 116.489 85.889 116.413 85.889Z" fill="#79A73A"/>
<path d="M116.414 85.8892C116.09 85.8892 115.778 85.7142 115.618 85.4065C115.389 84.9677 115.559 84.4248 115.999 84.1961L121.094 81.541C121.535 81.3113 122.075 81.4827 122.304 81.9223C122.533 82.3611 122.363 82.904 121.923 83.1328L116.828 85.7879C116.696 85.8569 116.554 85.8892 116.414 85.8892Z" fill="#79A73A"/>
<path d="M90.1682 82.3529C88.5701 79.8808 85.7956 78.2405 82.6326 78.2405C82.2459 78.2405 81.8664 78.2729 81.4922 78.3213C80.7456 75.6859 78.3282 73.7539 75.4541 73.7539C71.9851 73.7539 69.1729 76.5661 69.1729 80.0351C69.1729 82.9091 71.1048 85.3265 73.7402 86.0731C73.6918 86.4472 73.6595 86.8268 73.6595 87.2135C73.6595 90.3765 75.2997 93.1511 77.7718 94.7491C78.3954 100.353 83.144 104.711 88.9137 104.711C95.1087 104.711 100.13 99.6896 100.13 93.4947C100.13 87.725 95.7719 82.9765 90.1682 82.3529Z" fill="#79A73A"/>
<path d="M99.581 90.0518C98.2493 85.9286 94.6036 82.8464 90.1682 82.352C88.5701 79.8808 85.7956 78.2404 82.6326 78.2404C82.2459 78.2404 81.8664 78.2728 81.4922 78.3212C80.7456 75.6859 78.3281 73.7539 75.4541 73.7539C71.9851 73.7539 69.1729 76.5661 69.1729 80.0351C69.1729 82.9091 71.1048 85.3265 73.7402 86.0731C73.6918 86.4472 73.6595 86.8268 73.6595 87.2135C73.6595 90.3765 75.2997 93.151 77.7718 94.7491C77.9333 96.1982 78.3757 97.5621 79.0353 98.7914C79.5862 98.9279 80.1461 99.0453 80.7186 99.1378C89.1291 100.497 96.9509 96.5393 99.581 90.0518Z" fill="#89B140"/>
<path d="M98.1501 103.999L99.4191 102.73L77.8842 81.1956L76.6152 82.4646L98.1501 103.999Z" fill="#6F9935"/>
<path d="M92.503 97.9813H85.3245V96.1866H91.6057V90.8027H93.4004V97.0839C93.4002 97.5802 92.9992 97.9813 92.503 97.9813Z" fill="#6F9935"/>
<path d="M87.1191 92.5976H80.838V90.8029H86.2219V86.3164H88.0165V91.7003C88.0164 92.1965 87.6153 92.5976 87.1191 92.5976Z" fill="#6F9935"/>
<path d="M81.7352 87.2135H77.2487V85.4189H80.838V81.8296H82.6326V86.3161C82.6325 86.8124 82.2315 87.2135 81.7352 87.2135Z" fill="#6F9935"/>
<path d="M102.373 107.403L108.131 88.2027C109.532 85.0289 113.241 83.5923 116.414 84.993C119.588 86.3937 121.025 90.1023 119.624 93.276L111.154 107.403" fill="#F26B32"/>
<path d="M103.271 105.609C107.607 105.609 111.585 104.071 114.687 101.51L119.623 93.2751C121.024 90.1013 119.587 86.3936 116.414 84.992C113.24 83.5914 109.532 85.0279 108.131 88.2017L102.917 105.591C103.036 105.593 103.151 105.609 103.271 105.609Z" fill="#F27332"/>
<path d="M113.517 91.5562L114.241 89.9146L109.316 87.7407L108.592 89.3823L113.517 91.5562Z" fill="#D85021"/>
<path d="M112.886 95.2046L112.162 96.8467L116.369 98.7041L117.299 97.1527L112.886 95.2046Z" fill="#D85021"/>
<path d="M104.755 99.4627L109.167 101.41L109.891 99.7678L105.274 97.73L104.755 99.4627Z" fill="#D85021"/>
<path d="M110.518 96.1222L111.243 94.4805L109.602 93.756L108.877 95.3977L110.518 96.1222Z" fill="#D85021"/>
<path d="M106.688 82.9203C107.537 79.1058 105.154 75.3147 101.34 74.4344C97.5252 73.5541 93.7215 75.9186 92.8134 79.7187L106.688 82.9203Z" fill="#F4CA62"/>
<path d="M101.34 74.4344C99.8599 74.0926 98.3838 74.2451 97.0756 74.7745L99.6967 81.3069L105.073 76.6659C104.124 75.5884 102.846 74.7817 101.34 74.4344Z" fill="#FBB540"/>
<path d="M117.068 111.89H105.963V113.684H116.532C116.74 113.098 116.918 112.501 117.068 111.89Z" fill="#FBB540"/>
<path d="M93.4002 107.403V113.684C93.4002 114.38 92.1951 115.805 90.7083 115.805C89.2214 115.805 88.0164 114.381 88.0164 113.684V111.889C88.0164 110.898 87.2134 110.095 86.2218 110.095C85.2302 110.095 84.4272 110.898 84.4272 111.889C84.4272 112.881 83.6241 113.684 82.6325 113.684C81.641 113.684 80.8379 112.881 80.8379 111.889V107.403H84.4272H93.4002Z" fill="#F7BA61"/>
<path d="M108.131 88.2025L107.871 89.0693L113.514 91.5602L114.24 89.9181L108.559 87.4102C108.401 87.6624 108.254 87.9226 108.131 88.2025Z" fill="#D85021"/>
<path d="M115.79 115.479H107.757V117.274H114.814C115.171 116.695 115.496 116.097 115.79 115.479Z" fill="#FBB540"/>
<path d="M85.5255 123.555C88.3547 125.252 91.655 126.247 95.1949 126.247H98.7841C102.324 126.247 105.624 125.252 108.453 123.555H85.5255Z" fill="#C48426"/>
</g>
<g clip-path="url(#clip3)">
<path d="M52.8799 98.0527H72.9235L71.0725 120.267C70.9859 121.306 70.1175 122.105 69.0751 122.105H56.7283C55.6859 122.105 54.8175 121.306 54.731 120.267L52.8799 98.0527Z" fill="#BFE1ED"/>
<path d="M27.8255 74.0006V68.9897H39.8516V74.0006C45.589 79.1003 48.8715 86.4101 48.8712 94.0863V116.092C48.8712 119.413 46.1791 122.105 42.8582 122.105H24.819C21.498 122.105 18.8059 119.413 18.8059 116.092V94.0863C18.8057 86.4101 22.0882 79.1003 27.8255 74.0006Z" fill="#D1EEF6"/>
<path d="M33.7985 85.0018C29.8066 82.7298 24.997 82.4011 20.7331 84.1088C19.4616 87.2817 18.8075 90.6683 18.8059 94.0865V116.092C18.8059 119.413 21.498 122.105 24.819 122.105H42.8582C46.1791 122.105 48.8712 119.413 48.8712 116.092V94.0865C48.8704 91.2113 48.4082 88.3549 47.5023 85.6261C43.0987 87.6285 38.0018 87.3964 33.7985 85.0018Z" fill="#F2F2F2"/>
<path d="M27.8255 64.0601H39.8516C41.5121 64.0601 42.8582 65.4061 42.8582 67.0666C42.8582 68.7271 41.5121 70.0731 39.8516 70.0731H27.8255C26.165 70.0731 24.819 68.7271 24.819 67.0666C24.819 65.4061 26.165 64.0601 27.8255 64.0601Z" fill="#BFE1ED"/>
<path d="M44.8625 100.057C44.3091 100.057 43.8603 99.6086 43.8603 99.0551V98.053C43.8603 97.4995 44.3091 97.0508 44.8625 97.0508C45.416 97.0508 45.8647 97.4995 45.8647 98.053V99.0551C45.8647 99.6086 45.416 100.057 44.8625 100.057Z" fill="#C7CCD1"/>
<path d="M44.8625 111.081C44.3091 111.081 43.8603 110.632 43.8603 110.079V103.064C43.8603 102.51 44.3091 102.062 44.8625 102.062C45.416 102.062 45.8647 102.51 45.8647 103.064V110.079C45.8647 110.632 45.416 111.081 44.8625 111.081Z" fill="#C7CCD1"/>
<path d="M54.731 120.267C54.8175 121.306 55.6859 122.105 56.7283 122.105H69.0751C70.1175 122.105 70.9859 121.306 71.0725 120.267L72.4224 104.066H53.381L54.731 120.267Z" fill="#F2F2F2"/>
</g>
<g clip-path="url(#clip4)">
<path d="M217.601 115.074H180.117C176.72 115.071 173.81 112.642 173.203 109.3L169.562 89.292H228.157L224.524 109.3C223.915 112.644 221.001 115.076 217.601 115.074Z" fill="#BF7341"/>
<path d="M181.764 115.074H217.601C220.999 115.071 223.908 112.642 224.516 109.3L228.157 89.292H220.441C210.227 104.033 192.392 111.654 181.764 115.074Z" fill="#B56D3E"/>
<path d="M193 84.6045H178.937V61.1667C178.937 57.283 182.085 54.1353 185.968 54.1353C189.852 54.1353 193 57.283 193 61.1667V84.6045Z" fill="#C96E23"/>
<path d="M184.355 73.8004L190.214 69.1138L188.75 67.2835L182.891 71.9701L184.355 73.8004Z" fill="#B5611D"/>
<path d="M224.641 84.6047H210.578V82.2609C210.578 78.3772 213.726 75.2295 217.61 75.2295C221.493 75.2295 224.641 78.3772 224.641 82.2609V84.6047H224.641Z" fill="#C96E23"/>
<path d="M216.438 78.7451H214.094V81.0889H216.438V78.7451Z" fill="#B5611D"/>
<path d="M222.297 79.917H219.953V82.2608H222.297V79.917Z" fill="#B5611D"/>
<path d="M215.638 84.6045H200.404L212.688 58.0025C213.772 55.6471 216.126 54.1376 218.718 54.1353H219.166C220.675 54.1353 222.14 54.6485 223.318 55.592C225.693 57.4917 226.475 60.7623 225.216 63.5316L215.638 84.6045Z" fill="#D68033"/>
<path d="M213.62 65.8111L221.823 63.4658L221.179 61.2122L212.976 63.5575L213.62 65.8111Z" fill="#C96E23"/>
<path d="M212.311 73.5582L211.604 71.3234L217.628 69.4238L218.336 71.6598L212.311 73.5582Z" fill="#C96E23"/>
<path d="M206.243 82.2053L213.647 79.8623L212.94 77.6278L205.536 79.9708L206.243 82.2053Z" fill="#C96E23"/>
<path d="M169.562 84.6045H228.157C229.451 84.6045 230.5 85.6534 230.5 86.9483C230.5 88.2431 229.451 89.292 228.157 89.292H169.562C168.267 89.2922 167.218 88.2433 167.218 86.9483C167.218 85.6534 168.267 84.6045 169.562 84.6045Z" fill="#BF7341"/>
<path d="M222.297 84.6045V82.2607C222.297 69.3159 211.804 58.8228 198.859 58.8228C185.914 58.8228 175.421 69.3159 175.421 82.2607V84.6045H170.734V82.2607C170.734 66.7272 183.326 54.1353 198.859 54.1353C214.393 54.1353 226.985 66.7272 226.985 82.2607V84.6045H222.297Z" fill="#965735"/>
<path d="M210.578 84.6044C210.255 72.8551 205.139 63.5103 198.859 63.5103C192.579 63.5103 187.464 72.8549 187.14 84.6044H210.578Z" fill="#F09E3E"/>
<path d="M199.099 77.8839L193 79.9171C193.001 77.1163 194.795 74.6307 197.453 73.7471L203.547 71.7139C203.547 74.5135 201.755 76.9991 199.099 77.8839Z" fill="#D68033"/>
<path d="M209.511 76.4297C206.265 79.9267 202.327 82.7111 197.948 84.6048H210.578C210.511 81.8498 210.154 79.1099 209.511 76.4297Z" fill="#EB9634"/>
<path d="M219.953 93.9795H212.922V96.3233H219.953V93.9795Z" fill="#965735"/>
<path d="M208.234 93.9795H201.203V96.3233H208.234V93.9795Z" fill="#965735"/>
<path d="M196.515 93.9795H189.484V96.3233H196.515V93.9795Z" fill="#965735"/>
<path d="M184.796 93.9795H177.765V96.3233H184.796V93.9795Z" fill="#965735"/>
<path d="M184.796 101.011H177.765V103.355H184.796V101.011Z" fill="#965735"/>
<path d="M184.796 108.042H177.765V110.386H184.796V108.042Z" fill="#965735"/>
<path d="M187.14 84.6047H173.078V82.2609C173.078 78.3772 176.225 75.2295 180.109 75.2295C183.993 75.2295 187.14 78.3772 187.14 82.2609V84.6047H187.14Z" fill="#D68033"/>
<path d="M187.14 82.2607C187.141 80.1852 186.224 78.2165 184.634 76.8828C183.049 80.2075 180.417 82.9205 177.14 84.6044H187.14V82.2607Z" fill="#D97A27"/>
<path d="M178.937 78.7451H176.593V81.0889H178.937V78.7451Z" fill="#C96E23"/>
<path d="M183.625 79.917H181.281V82.2608H183.625V79.917Z" fill="#C96E23"/>
<path d="M226.985 90.4639H173.078C172.431 90.4639 171.906 89.9388 171.906 89.2919C171.906 88.645 172.431 88.1201 173.078 88.1201H226.985C227.632 88.1201 228.157 88.6452 228.157 89.2921C228.157 89.939 227.632 90.4639 226.985 90.4639Z" fill="#965735"/>
<path d="M235.188 104.527C235.188 106.469 233.614 108.043 231.672 108.043V119.762C231.672 121.057 230.623 122.105 229.329 122.105H194.172C192.877 122.105 191.828 121.057 191.828 119.762V108.043C189.886 108.043 188.312 106.469 188.312 104.527C188.312 102.585 189.886 101.011 191.828 101.011H231.672C233.614 101.011 235.188 102.585 235.188 104.527Z" fill="#F09E3E"/>
<path d="M227.425 108.042C227.405 108.065 227.382 108.084 227.362 108.106C224.135 114.903 218.338 119.381 213.408 122.105H229.328C230.623 122.105 231.672 121.056 231.672 119.761V108.042H227.425Z" fill="#F09235"/>
<path d="M214.094 104.527C214.094 106.469 212.52 108.043 210.578 108.043V119.762C210.578 121.057 209.529 122.105 208.234 122.105H194.172C192.877 122.105 191.828 121.057 191.828 119.762V108.043C189.886 108.043 188.312 106.469 188.312 104.527C188.312 102.585 189.886 101.011 191.828 101.011H210.578C212.52 101.011 214.094 102.585 214.094 104.527Z" fill="#F0DBC2"/>
<path d="M226.985 104.527H224.641V106.871H226.985V104.527Z" fill="#D68033"/>
<path d="M221.125 108.042H218.781V110.386H221.125V108.042Z" fill="#D68033"/>
<path d="M228.157 113.902H225.813V116.246H228.157V113.902Z" fill="#D68033"/>
<path d="M216.438 116.246H214.094V118.589H216.438V116.246Z" fill="#D68033"/>
</g>
<g clip-path="url(#clip5)">
<path d="M168.908 110.592C166.35 106.977 163.505 105.353 161.191 104.65C158.261 103.76 155.15 105.308 154.093 108.181C153.258 110.451 152.837 113.7 154.178 117.921C154.178 117.921 155.766 123.985 162.091 124.421C164.979 124.62 167.737 123.248 169.32 120.825C172.787 115.516 168.908 110.592 168.908 110.592Z" fill="#E59770"/>
<path d="M169.32 120.825C168.391 122.247 167.056 123.308 165.529 123.9C166.528 123.293 167.397 122.462 168.06 121.447C171.527 116.138 167.648 111.214 167.648 111.214C165.09 107.598 162.245 105.974 159.931 105.271C158.714 104.902 157.465 104.953 156.345 105.345C157.73 104.437 159.491 104.133 161.191 104.65C163.505 105.352 166.35 106.976 168.908 110.593C168.908 110.593 172.787 115.516 169.32 120.825Z" fill="#DB7E56"/>
<path d="M177.278 106.462C174.72 102.846 171.875 101.222 169.561 100.519C166.631 99.629 163.52 101.177 162.463 104.051C161.628 106.32 161.207 109.569 162.548 113.79C162.548 113.79 164.136 119.854 170.461 120.29C173.349 120.49 176.107 119.117 177.69 116.694C181.157 111.386 177.278 106.462 177.278 106.462Z" fill="#F9E8D4"/>
<path d="M177.69 116.694C176.761 118.116 175.426 119.177 173.899 119.77C174.898 119.162 175.767 118.331 176.43 117.316C179.897 112.007 176.018 107.083 176.018 107.083C173.46 103.467 170.615 101.843 168.301 101.141C167.084 100.771 165.835 100.822 164.715 101.214C166.1 100.307 167.861 100.002 169.561 100.519C171.875 101.222 174.72 102.846 177.278 106.462C177.278 106.462 181.157 111.385 177.69 116.694Z" fill="#E8D0BA"/>
<path d="M173.218 116.764C175.319 115.719 176.171 113.162 175.122 111.053C174.073 108.945 171.519 108.083 169.418 109.128C167.317 110.174 166.464 112.731 167.514 114.839C168.563 116.948 171.117 117.81 173.218 116.764Z" fill="#FEC007"/>
<path d="M175.123 111.054C176.171 113.162 175.319 115.719 173.217 116.765C172.251 117.246 171.19 117.323 170.223 117.061C170.734 117.016 171.245 116.875 171.732 116.633C173.833 115.588 174.686 113.031 173.637 110.923C173.07 109.784 172.064 109.008 170.928 108.702C172.623 108.551 174.316 109.435 175.123 111.054Z" fill="#EFAD0A"/>
</g>
<path d="M28.7859 22.3633L23.2879 35H20.3094L25.8172 23.0664H18.7469V20.7812H28.7859V22.3633ZM31.0563 33.6133C31.0563 33.1641 31.206 32.7995 31.5055 32.5195C31.8115 32.2396 32.1923 32.0996 32.648 32.0996C33.1103 32.0996 33.4911 32.2396 33.7906 32.5195C34.0966 32.7995 34.2496 33.1641 34.2496 33.6133C34.2496 34.056 34.0999 34.4173 33.8004 34.6973C33.5009 34.9707 33.1168 35.1074 32.648 35.1074C32.1858 35.1074 31.8049 34.9707 31.5055 34.6973C31.206 34.4173 31.0563 34.056 31.0563 33.6133ZM31.0563 25.6152C31.0563 25.166 31.206 24.8014 31.5055 24.5215C31.8115 24.2415 32.1923 24.1016 32.648 24.1016C33.1103 24.1016 33.4911 24.2415 33.7906 24.5215C34.0966 24.8014 34.2496 25.166 34.2496 25.6152C34.2496 26.0579 34.0999 26.4193 33.8004 26.6992C33.5009 26.9727 33.1168 27.1094 32.648 27.1094C32.1858 27.1094 31.8049 26.9727 31.5055 26.6992C31.206 26.4193 31.0563 26.0579 31.0563 25.6152ZM46.2172 29.1211C46.2172 31.0872 45.8103 32.5911 44.9965 33.6328C44.1827 34.6745 42.9913 35.1953 41.4223 35.1953C39.8728 35.1953 38.6879 34.6842 37.8676 33.6621C37.0473 32.64 36.6273 31.1751 36.6078 29.2676V26.6504C36.6078 24.6647 37.018 23.1576 37.8383 22.1289C38.6651 21.1003 39.8533 20.5859 41.4027 20.5859C42.9522 20.5859 44.1371 21.097 44.9574 22.1191C45.7777 23.1348 46.1977 24.5964 46.2172 26.5039V29.1211ZM43.3949 26.25C43.3949 25.0716 43.2322 24.2155 42.9066 23.6816C42.5876 23.1413 42.0863 22.8711 41.4027 22.8711C40.7387 22.8711 40.2471 23.1283 39.9281 23.6426C39.6156 24.1504 39.4496 24.9479 39.4301 26.0352V29.4922C39.4301 30.651 39.5863 31.5137 39.8988 32.0801C40.2178 32.64 40.7257 32.9199 41.4223 32.9199C42.1124 32.9199 42.6104 32.6497 42.9164 32.1094C43.2224 31.569 43.3819 30.7422 43.3949 29.6289V26.25ZM57.9016 29.1211C57.9016 31.0872 57.4947 32.5911 56.6809 33.6328C55.8671 34.6745 54.6757 35.1953 53.1066 35.1953C51.5572 35.1953 50.3723 34.6842 49.552 33.6621C48.7316 32.64 48.3117 31.1751 48.2922 29.2676V26.6504C48.2922 24.6647 48.7023 23.1576 49.5227 22.1289C50.3495 21.1003 51.5376 20.5859 53.0871 20.5859C54.6366 20.5859 55.8215 21.097 56.6418 22.1191C57.4621 23.1348 57.882 24.5964 57.9016 26.5039V29.1211ZM55.0793 26.25C55.0793 25.0716 54.9165 24.2155 54.591 23.6816C54.272 23.1413 53.7707 22.8711 53.0871 22.8711C52.423 22.8711 51.9315 23.1283 51.6125 23.6426C51.3 24.1504 51.134 24.9479 51.1145 26.0352V29.4922C51.1145 30.651 51.2707 31.5137 51.5832 32.0801C51.9022 32.64 52.41 32.9199 53.1066 32.9199C53.7967 32.9199 54.2948 32.6497 54.6008 32.1094C54.9068 31.569 55.0663 30.7422 55.0793 29.6289V26.25Z" fill="black"/>
<defs>
<clipPath id="clip0">
<rect width="240" height="61.3534" fill="white" transform="translate(0 86.0151)"/>
</clipPath>
<clipPath id="clip1">
<rect width="83.0075" height="112.782" fill="white" transform="translate(82.7068)"/>
</clipPath>
<clipPath id="clip2">
<rect width="53.2331" height="53.2331" fill="white" transform="translate(69.1729 73.3838)"/>
</clipPath>
<clipPath id="clip3">
<rect width="58.0451" height="58.0451" fill="white" transform="translate(16.8421 64.0601)"/>
</clipPath>
<clipPath id="clip4">
<rect width="67.9699" height="67.9699" fill="white" transform="translate(167.218 54.1353)"/>
</clipPath>
<clipPath id="clip5">
<rect width="26.0456" height="26.1393" fill="white" transform="translate(148.271 106.34) rotate(-26.4553)"/>
</clipPath>
</defs>
</svg>
