<svg width="80" height="80" viewBox="0 0 80 80" fill="none" xmlns="http://www.w3.org/2000/svg">
<path d="M18.9062 70.4688H23.5938V80H18.9062V70.4688Z" fill="#FFEACC"/>
<path d="M56.4062 70.4688H61.0938V80H56.4062V70.4688Z" fill="#FFD9B3"/>
<path d="M70.4688 75.1562H9.53125V65.7812C9.53125 63.1923 11.6298 61.0938 14.2188 61.0938H65.7812C68.3702 61.0938 70.4688 63.1923 70.4688 65.7812V75.1562Z" fill="#665151"/>
<path d="M40 75.1562H70.4688V65.7812C70.4688 63.1923 68.3702 61.0938 65.7812 61.0938H40V75.1562Z" fill="#4D3535"/>
<path d="M70.4688 65.7812H9.53125V0H70.4688V65.7812Z" fill="#FFEACC"/>
<path d="M40 0H70.4688V65.7812H40V0Z" fill="#FFD9B3"/>
<path d="M56.4062 28.2812H23.5938V9.53125H56.4062V28.2812Z" fill="#665151"/>
<path d="M28.2812 51.7188H32.9688V56.4062H28.2812V51.7188Z" fill="#665151"/>
<path d="M37.6562 51.7188H42.3438V56.4062H37.6562V51.7188Z" fill="#665151"/>
<path d="M28.2812 42.3438H32.9688V47.0312H28.2812V42.3438Z" fill="#665151"/>
<path d="M37.6562 42.3438H42.3438V47.0312H37.6562V42.3438Z" fill="#665151"/>
<path d="M47.0312 51.7188H51.7188V56.4062H47.0312V51.7188Z" fill="#4D3535"/>
<path d="M47.0312 42.3438H51.7188V47.0312H47.0312V42.3438Z" fill="#4D3535"/>
<path d="M28.2812 32.9688H32.9688V37.6562H28.2812V32.9688Z" fill="#665151"/>
<path d="M37.6562 32.9688H42.3438V37.6562H37.6562V32.9688Z" fill="#665151"/>
<path d="M47.0312 32.9688H51.7188V37.6562H47.0312V32.9688Z" fill="#4D3535"/>
<path d="M40 51.7188H42.3438V56.4062H40V51.7188Z" fill="#4D3535"/>
<path d="M40 42.3438H42.3438V47.0312H40V42.3438Z" fill="#4D3535"/>
<path d="M40 32.9688H42.3438V37.6562H40V32.9688Z" fill="#4D3535"/>
<path d="M40 9.53125H56.4062V28.2812H40V9.53125Z" fill="#4D3535"/>
<path d="M28.2812 14.2188H51.7188V23.5938H28.2812V14.2188Z" fill="#C1F261"/>
<path d="M40 14.2188H51.7188V23.5938H40V14.2188Z" fill="#A0E65C"/>
</svg>
